<svg viewBox="292.8316 169.7849 390.3368 184.4301" width="5000" height="2362.448275438032" xmlns="http://www.w3.org/2000/svg" xmlns:xlink="http://www.w3.org/1999/xlink" preserveAspectRatio="none"><defs></defs><style>.companyName {fill:#EBB42C;fill-opacity:1;}.icon2 {fill:#E7240E;fill-opacity:1;}.icon3 {fill:#B47049;fill-opacity:1;}.icon3-str {stroke:#B47049;stroke-opacity:1;}.text {fill:#EBB42C;fill-opacity:1;}</style><g opacity="1" transform="rotate(0 298 344.5312)">
<svg width="380" height="9.6838" x="298" y="344.5312" version="1.1" preserveAspectRatio="none" viewBox="0.4 -26.8 1067.2399999999998 27.200000000000003">
  <g transform="matrix(1 0 0 1 0 0)" class="text"><path id="id-6izo4zJp30" d="M22.48-26.40L13.04-10.32L13.04 0L9.84 0L9.84-10.32L0.40-26.40L4.20-26.40L11.44-13.60L18.68-26.40L22.48-26.40Z M49.04-26.80Q52.76-26.80 55.52-25.14Q58.28-23.48 59.78-20.42Q61.28-17.36 61.28-13.20L61.28-13.20Q61.28-9.04 59.78-5.98Q58.28-2.92 55.52-1.26Q52.76 0.40 49.04 0.40L49.04 0.40Q45.32 0.40 42.56-1.26Q39.80-2.92 38.30-5.98Q36.80-9.04 36.80-13.20L36.80-13.20Q36.80-17.36 38.30-20.42Q39.80-23.48 42.56-25.14Q45.32-26.80 49.04-26.80L49.04-26.80ZM49.04-23.80Q44.92-23.80 42.54-20.98Q40.16-18.16 40.16-13.20L40.16-13.20Q40.16-8.24 42.54-5.42Q44.92-2.60 49.04-2.60L49.04-2.60Q53.16-2.60 55.54-5.42Q57.92-8.24 57.92-13.20L57.92-13.20Q57.92-18.16 55.54-20.98Q53.16-23.80 49.04-23.80L49.04-23.80Z M100.76-26.40L100.76-9.84Q100.76-4.76 98.10-2.18Q95.44 0.40 90.40 0.40L90.40 0.40Q85.36 0.40 82.70-2.20Q80.04-4.80 80.04-9.84L80.04-9.84L80.04-26.40L83.24-26.40L83.24-10.64Q83.24-6.48 84.98-4.54Q86.72-2.60 90.40-2.60L90.40-2.60Q94.08-2.60 95.82-4.54Q97.56-6.48 97.56-10.64L97.56-10.64L97.56-26.40L100.76-26.40Z M137.84 0L130.64-10.96L124.32-10.96L124.32 0L121.12 0L121.12-26.40L131.12-26.40Q135.16-26.40 137.60-24.32Q140.04-22.24 140.04-18.68L140.04-18.68Q140.04-15.88 138.48-13.96Q136.92-12.04 134.20-11.32L134.20-11.32L141.64 0L137.84 0ZM124.32-23.40L124.32-13.96L131.08-13.96Q136.68-13.96 136.68-18.68L136.68-18.68Q136.68-23.40 131.08-23.40L131.08-23.40L124.32-23.40Z M202.08 0L194.88-10.96L188.56-10.96L188.56 0L185.36 0L185.36-26.40L195.36-26.40Q199.40-26.40 201.84-24.32Q204.28-22.24 204.28-18.68L204.28-18.68Q204.28-15.88 202.72-13.96Q201.16-12.04 198.44-11.32L198.44-11.32L205.88 0L202.08 0ZM188.56-23.40L188.56-13.96L195.32-13.96Q200.92-13.96 200.92-18.68L200.92-18.68Q200.92-23.40 195.32-23.40L195.32-23.40L188.56-23.40Z M227.16-3L243.08-3L243.08 0L223.96 0L223.96-26.40L242.48-26.40L242.48-23.40L227.16-23.40L227.16-14.88L239.08-14.88L239.08-11.88L227.16-11.88L227.16-3Z M264.68-3L279.80-3L279.80 0L261.48 0L261.48-26.40L264.68-26.40L264.68-3Z M300.60-26.40L300.60 0L297.40 0L297.40-26.40L300.60-26.40Z M338.88 0L336.08-7.32L324.12-7.32L321.32 0L317.96 0L328.24-26.40L332.04-26.40L342.28 0L338.88 0ZM325.28-10.32L334.92-10.32L331.36-19.68L330.12-23.36L330.04-23.36L328.88-19.80L325.28-10.32Z M359.64 0L359.64-26.40L369.04-26.40Q373.60-26.40 375.82-24.50Q378.04-22.60 378.04-19.12L378.04-19.12Q378.04-17.04 376.86-15.44Q375.68-13.84 373.60-13.44L373.60-13.44L373.60-13.40Q375.92-12.96 377.32-11.28Q378.72-9.60 378.72-7.40L378.72-7.40Q378.72-4 376.16-2Q373.60 0 369 0L369 0L359.64 0ZM362.84-14.80L369.08-14.80Q371.92-14.80 373.30-15.86Q374.68-16.92 374.68-19.12L374.68-19.12Q374.68-23.40 369.08-23.40L369.08-23.40L362.84-23.40L362.84-14.80ZM362.84-3L369.76-3Q372.56-3 373.96-4.14Q375.36-5.28 375.36-7.40L375.36-7.40Q375.36-9.52 373.96-10.66Q372.56-11.80 369.76-11.80L369.76-11.80L362.84-11.80L362.84-3Z M400.96-3L416.08-3L416.08 0L397.76 0L397.76-26.40L400.96-26.40L400.96-3Z M436.88-3L452.80-3L452.80 0L433.68 0L433.68-26.40L452.20-26.40L452.20-23.40L436.88-23.40L436.88-14.88L448.80-14.88L448.80-11.88L436.88-11.88L436.88-3Z M505.32-26.80Q512.40-26.80 515.52-21.20L515.52-21.20L512.76-18.96Q511.56-21.60 509.90-22.70Q508.24-23.80 505.36-23.80L505.36-23.80Q502.32-23.80 500.58-22.54Q498.84-21.28 498.84-19.32L498.84-19.32Q498.84-18.04 499.52-17.20Q500.20-16.36 501.78-15.74Q503.36-15.12 506.16-14.64L506.16-14.64Q511.40-13.76 513.58-12Q515.76-10.24 515.76-7.12L515.76-7.12Q515.76-4.88 514.50-3.18Q513.24-1.48 510.92-0.54Q508.60 0.40 505.56 0.40L505.56 0.40Q501.56 0.40 498.74-1.16Q495.92-2.72 494.44-5.32L494.44-5.32L497.20-7.56Q498.28-5.20 500.38-3.90Q502.48-2.60 505.64-2.60L505.64-2.60Q508.76-2.60 510.60-3.74Q512.44-4.88 512.44-6.96L512.44-6.96Q512.44-8.72 510.84-9.76Q509.24-10.80 505.16-11.52L505.16-11.52Q499.88-12.44 497.68-14.16Q495.48-15.88 495.48-18.96L495.48-18.96Q495.48-21.08 496.68-22.88Q497.88-24.68 500.12-25.74Q502.36-26.80 505.32-26.80L505.32-26.80Z M545.12-26.80Q548.84-26.80 551.60-25.14Q554.36-23.48 555.86-20.42Q557.36-17.36 557.36-13.20L557.36-13.20Q557.36-9.04 555.86-5.98Q554.36-2.92 551.60-1.26Q548.84 0.40 545.12 0.40L545.12 0.40Q541.40 0.40 538.64-1.26Q535.88-2.92 534.38-5.98Q532.88-9.04 532.88-13.20L532.88-13.20Q532.88-17.36 534.38-20.42Q535.88-23.48 538.64-25.14Q541.40-26.80 545.12-26.80L545.12-26.80ZM545.12-23.80Q541-23.80 538.62-20.98Q536.24-18.16 536.24-13.20L536.24-13.20Q536.24-8.24 538.62-5.42Q541-2.60 545.12-2.60L545.12-2.60Q549.24-2.60 551.62-5.42Q554-8.24 554-13.20L554-13.20Q554-18.16 551.62-20.98Q549.24-23.80 545.12-23.80L545.12-23.80Z M579.60-3L594.72-3L594.72 0L576.40 0L576.40-26.40L579.60-26.40L579.60-3Z M632.12-26.40L632.12-9.84Q632.12-4.76 629.46-2.18Q626.80 0.40 621.76 0.40L621.76 0.40Q616.72 0.40 614.06-2.20Q611.40-4.80 611.40-9.84L611.40-9.84L611.40-26.40L614.60-26.40L614.60-10.64Q614.60-6.48 616.34-4.54Q618.08-2.60 621.76-2.60L621.76-2.60Q625.44-2.60 627.18-4.54Q628.92-6.48 628.92-10.64L628.92-10.64L628.92-26.40L632.12-26.40Z M671.04-26.40L671.04-23.40L661.84-23.40L661.84 0L658.64 0L658.64-23.40L649.44-23.40L649.44-26.40L671.04-26.40Z M691.84-26.40L691.84 0L688.64 0L688.64-26.40L691.84-26.40Z M723.12-26.80Q726.84-26.80 729.60-25.14Q732.36-23.48 733.86-20.42Q735.36-17.36 735.36-13.20L735.36-13.20Q735.36-9.04 733.86-5.98Q732.36-2.92 729.60-1.26Q726.84 0.40 723.12 0.40L723.12 0.40Q719.40 0.40 716.64-1.26Q713.88-2.92 712.38-5.98Q710.88-9.04 710.88-13.20L710.88-13.20Q710.88-17.36 712.38-20.42Q713.88-23.48 716.64-25.14Q719.40-26.80 723.12-26.80L723.12-26.80ZM723.12-23.80Q719.00-23.80 716.62-20.98Q714.24-18.16 714.24-13.20L714.24-13.20Q714.24-8.24 716.62-5.42Q719.00-2.60 723.12-2.60L723.12-2.60Q727.24-2.60 729.62-5.42Q732.00-8.24 732.00-13.20L732.00-13.20Q732.00-18.16 729.62-20.98Q727.24-23.80 723.12-23.80L723.12-23.80Z M775.12-26.40L775.12 0L771.16 0L760.12-17.68L757.32-22.88L757.28-22.88L757.44-18.64L757.44 0L754.40 0L754.40-26.40L758.36-26.40L769.36-8.80L772.20-3.52L772.24-3.52L772.08-7.76L772.08-26.40L775.12-26.40Z M830.72-26.40Q834.72-26.40 837.16-24.22Q839.60-22.04 839.60-18.36L839.60-18.36Q839.60-14.68 837.16-12.50Q834.72-10.32 830.72-10.32L830.72-10.32L824.60-10.32L824.60 0L821.40 0L821.40-26.40L830.72-26.40ZM830.24-13.32Q833.32-13.32 834.78-14.58Q836.24-15.84 836.24-18.36L836.24-18.36Q836.24-20.88 834.78-22.14Q833.32-23.40 830.24-23.40L830.24-23.40L824.60-23.40L824.60-13.32L830.24-13.32Z M873.52 0L870.72-7.32L858.76-7.32L855.96 0L852.60 0L862.88-26.40L866.68-26.40L876.92 0L873.52 0ZM859.92-10.32L869.56-10.32L866.00-19.68L864.76-23.36L864.68-23.36L863.52-19.80L859.92-10.32Z M911.00 0L903.80-10.96L897.48-10.96L897.48 0L894.28 0L894.28-26.40L904.28-26.40Q908.32-26.40 910.76-24.32Q913.20-22.24 913.20-18.68L913.20-18.68Q913.20-15.88 911.64-13.96Q910.08-12.04 907.36-11.32L907.36-11.32L914.80 0L911.00 0ZM897.48-23.40L897.48-13.96L904.24-13.96Q909.84-13.96 909.84-18.68L909.84-18.68Q909.84-23.40 904.24-23.40L904.24-23.40L897.48-23.40Z M950.64-26.40L950.64-23.40L941.44-23.40L941.44 0L938.24 0L938.24-23.40L929.04-23.40L929.04-26.40L950.64-26.40Z M988.96-26.40L988.96 0L985.00 0L973.96-17.68L971.16-22.88L971.12-22.88L971.28-18.64L971.28 0L968.24 0L968.24-26.40L972.20-26.40L983.20-8.80L986.04-3.52L986.08-3.52L985.92-7.76L985.92-26.40L988.96-26.40Z M1012.80-3L1028.72-3L1028.72 0L1009.60 0L1009.60-26.40L1028.12-26.40L1028.12-23.40L1012.80-23.40L1012.80-14.88L1024.72-14.88L1024.72-11.88L1012.80-11.88L1012.80-3Z M1063.84 0L1056.64-10.96L1050.32-10.96L1050.32 0L1047.12 0L1047.12-26.40L1057.12-26.40Q1061.16-26.40 1063.60-24.32Q1066.04-22.24 1066.04-18.68L1066.04-18.68Q1066.04-15.88 1064.48-13.96Q1062.92-12.04 1060.20-11.32L1060.20-11.32L1067.64 0L1063.84 0ZM1050.32-23.40L1050.32-13.96L1057.08-13.96Q1062.68-13.96 1062.68-18.68L1062.68-18.68Q1062.68-23.40 1057.08-23.40L1057.08-23.40L1050.32-23.40Z"/></g>
</svg>
</g><g opacity="1" transform="rotate(0 292.8316 294.5141)">
<svg width="390.3368" height="27.2919" x="292.8316" y="294.5141" version="1.1" preserveAspectRatio="none" viewBox="1.1719 -28.2227 420.68350000000004 29.414099999999998">
  <g transform="matrix(1 0 0 1 0 0)" class="companyName"><path id="id-D6z1nYkh11" d="M22.23-8.09L22.23-8.09Q22.23-7.95 22.24-7.72Q22.25-7.50 22.24-7.28Q22.23-7.05 22.20-6.87Q22.17-6.68 22.09-6.60L22.09-6.60Q21.91-6.43 21.72-6.38Q21.52-6.33 21.32-6.32Q21.11-6.31 20.91-6.28Q20.70-6.25 20.51-6.13L20.51-6.13Q20.55-5.94 20.69-5.89Q20.84-5.84 21.01-5.81Q21.17-5.78 21.30-5.69Q21.43-5.61 21.43-5.35L21.43-5.35Q21.43-4.94 21.30-4.68Q21.17-4.41 21.00-4.21Q20.82-4.00 20.64-3.79Q20.47-3.57 20.37-3.24L20.37-3.24Q20.25-2.89 20.08-2.73Q19.90-2.58 19.70-2.49Q19.49-2.40 19.28-2.30Q19.06-2.21 18.87-1.95L18.87-1.95Q18.65-1.72 18.52-1.72L18.52-1.72Q18.46-1.72 18.38-1.74Q18.30-1.76 18.18-1.76L18.18-1.76Q18.09-1.76 18.00-1.69Q17.91-1.62 17.91-1.52L17.91-1.52Q17.91-1.48 17.95-1.48Q17.99-1.48 17.97-1.46L17.97-1.46Q17.73-1.25 17.13-0.97Q16.52-0.68 15.74-0.44Q14.96-0.20 14.11-0.03Q13.26 0.14 12.50 0.14L12.50 0.14Q11.17 0.14 9.87 0.07Q8.57 0 7.23 0L7.23 0L4.63 0Q4.57 0 4.46 0.12Q4.36 0.23 4.22 0.23L4.22 0.23Q4.00 0.23 3.66 0.18Q3.32 0.12 2.99-0.02Q2.66-0.16 2.41-0.36Q2.17-0.57 2.17-0.84L2.17-0.84Q2.17-0.94 2.19-1.01Q2.21-1.07 2.23-1.17L2.23-1.17Q2.40-1.72 2.71-2.00Q3.03-2.29 3.39-2.49Q3.75-2.70 4.13-2.91Q4.51-3.13 4.81-3.52Q5.12-3.91 5.31-4.57Q5.51-5.23 5.51-6.35L5.51-6.35Q5.51-7.36 5.38-8.36Q5.25-9.36 5.25-10.37L5.25-10.37Q5.27-12.25 5.34-14.08Q5.41-15.92 5.43-17.79L5.43-17.79L5.45-20.86Q5.45-21.35 5.42-21.99Q5.39-22.64 5.22-23.23Q5.06-23.83 4.70-24.25Q4.34-24.67 3.67-24.73L3.67-24.73Q3.34-24.75 2.91-24.90Q2.48-25.06 2.10-25.32Q1.72-25.59 1.45-25.92Q1.17-26.25 1.17-26.64L1.17-26.64Q1.17-26.97 1.37-27.20Q1.56-27.42 1.84-27.57Q2.11-27.71 2.43-27.78Q2.75-27.85 3.03-27.85L3.03-27.85Q3.65-27.85 4.26-27.72Q4.86-27.60 5.51-27.60L5.51-27.60Q6.31-27.60 7.12-27.68Q7.93-27.75 8.73-27.86Q9.53-27.97 10.34-28.05Q11.15-28.13 11.97-28.13L11.97-28.13Q12.66-28.13 13.34-28.08Q14.02-28.03 14.71-27.99L14.71-27.99Q14.82-27.83 15.12-27.73Q15.41-27.64 15.75-27.56Q16.09-27.48 16.43-27.43Q16.76-27.38 16.93-27.34L16.93-27.34Q17.40-27.25 17.74-27.14Q18.09-27.03 18.33-26.85Q18.57-26.66 18.76-26.37Q18.95-26.07 19.10-25.61L19.10-25.61Q19.12-25.55 19.29-25.43Q19.45-25.31 19.67-25.20Q19.88-25.08 20.08-24.96Q20.27-24.84 20.35-24.77L20.35-24.77Q20.61-24.51 20.87-23.99Q21.13-23.48 21.35-22.89Q21.56-22.30 21.70-21.74Q21.84-21.17 21.84-20.82L21.84-20.82Q21.84-20.10 21.63-19.38Q21.43-18.65 21.21-17.97L21.21-17.97Q21.07-17.56 20.81-17.19Q20.55-16.82 20.29-16.44Q20.04-16.05 19.85-15.66Q19.67-15.27 19.67-14.84L19.67-14.84Q19.67-14.24 19.92-13.63Q20.18-13.03 20.51-12.52L20.51-12.52Q20.64-12.29 20.83-12.07Q21.02-11.86 21.20-11.65Q21.39-11.45 21.54-11.22Q21.70-11.00 21.82-10.72L21.82-10.72Q22.07-10.10 22.15-9.42Q22.23-8.75 22.23-8.09ZM18.54-20.02L18.54-20.02Q18.54-20.23 18.48-20.53Q18.42-20.82 18.34-21.12Q18.26-21.43 18.18-21.73Q18.11-22.03 18.07-22.27L18.07-22.27Q18.01-22.56 17.89-22.74Q17.77-22.93 17.62-23.06Q17.46-23.18 17.27-23.31Q17.07-23.44 16.88-23.61L16.88-23.61Q16.39-24.04 15.94-24.30Q15.49-24.55 15-24.69Q14.51-24.82 13.96-24.87Q13.42-24.92 12.75-24.92L12.75-24.92Q12.32-24.92 11.87-24.90Q11.41-24.88 11.04-24.79L11.04-24.79Q10.96-24.75 10.94-24.69Q10.92-24.63 10.85-24.57Q10.78-24.51 10.61-24.46Q10.43-24.41 10.06-24.41L10.06-24.41Q9.49-24.41 9.13-24.26Q8.77-24.10 8.56-23.82Q8.36-23.54 8.28-23.13Q8.20-22.73 8.18-22.23L8.18-22.23Q8.16-21.58 8.15-20.90Q8.14-20.21 8.09-19.54Q8.03-18.87 7.88-18.22Q7.73-17.58 7.42-16.97L7.42-16.97Q8.52-16.70 9.65-16.54Q10.78-16.39 11.88-16.39L11.88-16.39Q12.64-16.39 13.41-16.45Q14.18-16.50 14.92-16.64L14.92-16.64Q15.20-16.70 15.65-16.86Q16.11-17.01 16.55-17.25Q16.99-17.48 17.33-17.77Q17.68-18.07 17.71-18.38L17.71-18.38Q17.75-18.61 17.88-18.81Q18.01-19.00 18.15-19.19Q18.30-19.38 18.42-19.57Q18.54-19.77 18.54-20.02ZM19.18-6.97L19.18-6.97Q19.18-7.48 19.05-7.99Q18.93-8.50 18.85-9.00L18.85-9.00Q18.79-9.47 18.74-9.75Q18.69-10.02 18.58-10.22Q18.48-10.43 18.28-10.63Q18.09-10.82 17.71-11.13L17.71-11.13Q17.62-11.56 17.51-11.64Q17.40-11.72 17.29-11.72L17.29-11.72Q17.19-11.72 17.08-11.71Q16.97-11.70 16.88-11.70L16.88-11.70L16.60-12.25Q16.23-12.50 15.95-12.64Q15.66-12.77 15.21-12.81L15.21-12.81Q14.82-12.85 14.44-12.97Q14.06-13.09 13.65-13.09L13.65-13.09Q13.48-13.09 13.38-12.95Q13.28-12.81 13.22-12.81L13.22-12.81Q13.11-12.81 12.95-12.86Q12.79-12.91 12.62-12.96Q12.44-13.01 12.26-13.06Q12.07-13.11 11.91-13.11L11.91-13.11Q11.04-13.11 10.21-12.92Q9.38-12.73 8.54-12.52L8.54-12.52Q8.38-12.11 8.23-11.62Q8.09-11.13 7.97-10.63Q7.85-10.12 7.77-9.62Q7.70-9.12 7.70-8.69L7.70-8.69Q7.70-8.48 7.73-8.35Q7.77-8.22 7.83-8.13Q7.89-8.03 7.93-7.93Q7.97-7.83 7.97-7.70L7.97-7.70Q7.97-6.91 7.80-6.16Q7.64-5.41 7.64-4.63L7.64-4.63Q7.64-4.12 7.77-3.65Q7.91-3.18 8.24-2.79L8.24-2.79Q8.63-2.79 8.98-2.65Q9.34-2.50 9.73-2.50L9.73-2.50Q10-2.50 10.26-2.64Q10.53-2.77 10.68-2.77L10.68-2.77Q10.84-2.77 10.93-2.64Q11.02-2.50 11.23-2.50L11.23-2.50L11.31-2.50Q11.37-2.60 11.52-2.67Q11.68-2.73 11.88-2.76Q12.09-2.79 12.32-2.80Q12.56-2.81 12.77-2.81L12.77-2.81Q13.18-2.81 13.41-2.79Q13.63-2.77 13.93-2.77L13.93-2.77Q14.75-2.95 15.49-3.20L15.49-3.20Q16.11-3.42 16.77-3.75Q17.42-4.08 17.79-4.53L17.79-4.53Q17.99-4.73 18.23-5.02Q18.48-5.31 18.68-5.63Q18.89-5.96 19.03-6.30Q19.18-6.64 19.18-6.97Z M63.09-13.14L63.09-13.14Q63.09-12.73 63.01-12.35Q62.93-11.97 62.84-11.59Q62.74-11.21 62.66-10.82Q62.58-10.43 62.58-10.04L62.58-10.04Q62.58-9.88 62.61-9.74Q62.64-9.59 62.64-9.43L62.64-9.43Q62.64-9.04 62.51-8.69Q62.39-8.34 62.21-8.01L62.21-8.01Q62.05-7.71 62.03-7.40Q62.00-7.09 61.99-6.78Q61.98-6.46 61.92-6.15Q61.86-5.84 61.68-5.57L61.68-5.57Q61.64-5.37 61.58-4.99Q61.51-4.61 61.41-4.45L61.41-4.45Q61.39-4.41 61.29-4.39Q61.20-4.38 61.08-4.36Q60.96-4.34 60.82-4.28Q60.69-4.22 60.59-4.10L60.59-4.10Q60.49-4.00 60.43-3.83Q60.38-3.65 60.30-3.48Q60.22-3.30 60.11-3.17Q60.00-3.05 59.83-3.05L59.83-3.05Q59.65-3.05 59.52-3.12Q59.38-3.18 59.24-3.25Q59.11-3.32 58.97-3.36Q58.83-3.40 58.64-3.34L58.64-3.34Q58.70-3.30 58.68-3.15Q58.66-3.01 58.69-2.85Q58.71-2.70 58.85-2.56Q58.99-2.42 59.34-2.42L59.34-2.42Q59.52-2.42 59.68-2.44Q59.85-2.46 60.02-2.50L60.02-2.50Q59.87-2.07 59.65-1.83Q59.44-1.58 59.17-1.40Q58.91-1.21 58.63-1.03Q58.34-0.84 58.07-0.55L58.07-0.55Q57.74-0.21 57.44-0.14Q57.13-0.06 56.72 0.06L56.72 0.06Q56.25 0.20 56.06 0.39Q55.86 0.59 55.63 0.76Q55.39 0.94 54.99 1.06Q54.59 1.19 53.73 1.19L53.73 1.19Q52.95 1.19 52.18 1.13Q51.41 1.07 50.65 0.98L50.65 0.98Q50.30 0.94 50.07 0.85Q49.85 0.76 49.65 0.65Q49.46 0.55 49.26 0.43Q49.07 0.31 48.77 0.20L48.77 0.20Q48.62 0.14 48.40 0.05Q48.19-0.04 47.95-0.14Q47.72-0.23 47.52-0.34Q47.33-0.45 47.21-0.55L47.21-0.55Q47.07-0.66 47.03-0.81Q46.98-0.96 46.94-1.12Q46.90-1.29 46.85-1.44Q46.80-1.58 46.66-1.68L46.66-1.68Q46.37-1.72 46.10-1.79Q45.82-1.86 45.55-1.95L45.55-1.95Q45.47-2.17 45.40-2.37Q45.34-2.58 45.26-2.79L45.26-2.79Q45.00-3.07 44.77-3.25Q44.54-3.44 44.36-3.63Q44.18-3.83 44.06-4.09Q43.93-4.36 43.89-4.79L43.89-4.79Q43.83-5.29 43.66-5.77Q43.48-6.25 43.29-6.72Q43.11-7.19 42.96-7.68Q42.82-8.16 42.82-8.67L42.82-8.67Q42.82-9.20 43.03-9.75L43.03-9.75Q42.46-10.55 42.33-11.49Q42.19-12.44 42.19-13.40L42.19-13.40Q42.19-13.71 42.20-14.01Q42.21-14.32 42.21-14.61L42.21-14.61Q42.21-14.94 42.06-15.13Q41.92-15.31 41.92-15.59L41.92-15.59Q41.92-16.02 42.04-16.43Q42.17-16.84 42.21-17.27L42.21-17.27Q41.96-17.30 41.88-17.46L41.88-17.46L41.92-17.54Q42.05-17.77 42.14-17.97Q42.23-18.16 42.27-18.34Q42.31-18.52 42.35-18.71Q42.39-18.91 42.45-19.16L42.45-19.16Q42.60-19.96 42.85-20.72Q43.09-21.48 43.32-22.27L43.32-22.27Q43.58-23.16 43.95-23.85Q44.32-24.53 45.10-25.12L45.10-25.12Q45.43-25.39 45.71-25.70Q45.98-26.02 46.10-26.45L46.10-26.45Q46.20-26.52 46.31-26.54Q46.43-26.56 46.55-26.56L46.55-26.56L46.70-26.56Q46.84-26.56 46.97-26.59Q47.09-26.62 47.21-26.72L47.21-26.72Q47.50-26.99 47.73-27.11Q47.95-27.23 48.34-27.23L48.34-27.23Q48.62-27.23 48.87-27.18Q49.13-27.13 49.40-27.07L49.40-27.07Q49.50-27.17 49.68-27.33Q49.87-27.50 50.00-27.56L50.00-27.56L50.00-27.50Q50.00-27.42 50.03-27.35Q50.06-27.29 50.16-27.29L50.16-27.29Q50.41-27.29 50.65-27.40Q50.88-27.52 51.14-27.56L51.14-27.56Q51.70-27.66 52.27-27.86Q52.84-28.07 53.42-28.07L53.42-28.07Q54.05-28.07 54.76-27.99Q55.47-27.91 56.16-27.70Q56.84-27.48 57.43-27.10Q58.01-26.72 58.36-26.11L58.36-26.11Q58.52-25.84 58.68-25.69Q58.83-25.55 58.99-25.44Q59.14-25.33 59.30-25.22Q59.46-25.12 59.63-24.92L59.63-24.92Q60.00-24.49 60.23-23.99Q60.45-23.50 60.86-23.11L60.86-23.11Q61.37-22.64 61.62-21.97Q61.86-21.31 61.86-20.63L61.86-20.63Q61.86-20.41 61.80-20.20Q61.74-19.98 61.74-19.75L61.74-19.75Q61.74-19.55 61.83-19.34Q61.92-19.12 62.04-18.89Q62.15-18.65 62.25-18.40Q62.35-18.14 62.39-17.91L62.39-17.91Q62.45-17.38 62.56-16.88Q62.68-16.39 62.80-15.86L62.80-15.86Q62.95-15.20 63.03-14.51Q63.11-13.83 63.09-13.14ZM59.91-13.28L59.91-13.28Q59.91-14.38 59.72-15.45Q59.54-16.52 59.36-17.60L59.36-17.60Q59.28-17.99 59.12-18.34Q58.95-18.69 58.83-19.06L58.83-19.06Q58.60-19.77 58.38-20.47Q58.17-21.17 57.95-21.88L57.95-21.88Q57.82-22.30 57.41-22.63Q57.00-22.95 56.45-23.17Q55.90-23.40 55.27-23.54Q54.63-23.69 54.05-23.78Q53.46-23.87 52.96-23.90Q52.46-23.93 52.21-23.93L52.21-23.93L52.46-23.95L52.25-23.93Q51.82-23.93 51.40-23.96Q50.98-24.00 50.55-24.00L50.55-24.00Q50.20-24.00 49.86-23.96Q49.52-23.91 49.24-23.69L49.24-23.69Q48.60-23.18 48.03-22.74Q47.46-22.30 47.09-21.54L47.09-21.54Q46.98-21.29 46.84-21.18Q46.70-21.07 46.58-20.97Q46.45-20.86 46.35-20.72Q46.25-20.59 46.21-20.27L46.21-20.27Q46.12-19.71 45.99-19.15Q45.86-18.59 45.86-18.03L45.86-18.03Q45.86-17.42 45.76-16.83Q45.65-16.23 45.41-15.66L45.41-15.66Q45.36-15.51 45.31-15.37Q45.26-15.23 45.26-15.08L45.26-15.08Q45.26-14.79 45.39-14.58Q45.53-14.38 45.53-14.22L45.53-14.22Q45.53-14.14 45.48-14.13Q45.43-14.12 45.38-14.09Q45.34-14.06 45.29-13.96Q45.24-13.87 45.24-13.61L45.24-13.61Q45.24-13.05 45.25-12.46Q45.26-11.88 45.36-11.31L45.36-11.31Q45.41-10.98 45.56-10.67Q45.71-10.37 45.71-10.04L45.71-10.04Q45.71-9.82 45.61-9.61Q45.51-9.39 45.51-9.16L45.51-9.16Q45.51-8.89 45.67-8.72Q45.82-8.55 45.98-8.34L45.98-8.34Q46.10-8.18 46.19-7.94Q46.27-7.70 46.36-7.48Q46.45-7.27 46.53-7.11Q46.61-6.95 46.70-6.95L46.70-6.95Q46.78-6.95 46.84-6.98Q46.90-7.01 46.98-7.01L46.98-7.01Q47.37-7.01 47.57-6.67Q47.78-6.33 47.78-6.00L47.78-6.00Q47.78-5.72 47.93-5.54Q48.09-5.35 48.30-5.20Q48.52-5.04 48.74-4.89Q48.97-4.75 49.13-4.57L49.13-4.57Q49.38-4.28 49.53-4.18Q49.67-4.08 49.79-4.05Q49.91-4.02 50.01-4.00Q50.12-3.98 50.30-3.87L50.30-3.87Q50.51-3.71 50.74-3.53Q50.96-3.34 51.18-3.18L51.18-3.18Q51.78-2.75 52.53-2.67Q53.29-2.58 54.01-2.58L54.01-2.58Q54.30-2.58 54.55-2.71Q54.81-2.85 55.06-3.02Q55.32-3.18 55.58-3.32Q55.84-3.46 56.16-3.46L56.16-3.46Q56.41-3.46 56.68-3.34L56.68-3.34Q57.13-4.02 57.54-4.43Q57.95-4.84 58.29-5.23Q58.62-5.63 58.85-6.13Q59.09-6.64 59.18-7.52L59.18-7.52Q59.22-7.89 59.39-8.21Q59.55-8.54 59.59-8.89L59.59-8.89Q59.69-9.67 59.70-10.45Q59.71-11.23 59.83-12.01L59.83-12.01Q59.87-12.32 59.89-12.64Q59.91-12.95 59.91-13.28Z M129.76-10.43L129.76-10.43Q129.76-10.04 129.73-9.64Q129.70-9.24 129.60-8.85L129.60-8.85Q129.52-8.52 129.40-8.23Q129.27-7.95 129.23-7.62L129.23-7.62Q129.19-7.42 129.15-7.20Q129.11-6.97 128.86-6.97L128.86-6.97L128.70-6.99Q128.39-6.99 128.23-6.75Q128.08-6.50 127.99-6.16Q127.90-5.82 127.85-5.47Q127.80-5.12 127.75-4.90L127.75-4.90Q127.69-4.69 127.68-4.52Q127.67-4.36 127.66-4.23Q127.65-4.10 127.57-3.96Q127.49-3.83 127.30-3.67L127.30-3.67Q126.98-3.44 126.69-3.22Q126.40-3.01 126.16-2.71L126.16-2.71Q125.99-2.50 125.93-2.34Q125.87-2.19 125.81-2.05Q125.75-1.91 125.63-1.81Q125.50-1.70 125.21-1.60L125.21-1.60Q124.76-1.45 124.35-1.25Q123.94-1.05 123.51-0.90L123.51-0.90Q123-0.70 122.55-0.46Q122.10-0.21 121.63 0Q121.16 0.21 120.67 0.36Q120.17 0.51 119.60 0.51L119.60 0.51Q119.09 0.51 118.60 0.35Q118.10 0.20 117.67-0.08L117.67-0.08Q117.26-0.12 117.04-0.37Q116.83-0.63 116.69-0.98L116.69-0.98Q116.57-1.25 116.47-1.37Q116.36-1.48 116.23-1.53Q116.11-1.58 115.95-1.62Q115.79-1.66 115.58-1.80L115.58-1.80Q114.70-2.36 113.98-3.21Q113.25-4.06 112.63-4.92L112.63-4.92Q112.49-5.12 112.42-5.38Q112.36-5.64 112.30-5.91Q112.24-6.17 112.17-6.42Q112.10-6.66 111.96-6.80L111.96-6.80Q111.71-7.05 111.52-7.07Q111.32-7.09 111.19-7.16Q111.07-7.23 111.00-7.49Q110.93-7.75 110.93-8.48L110.93-8.48Q110.93-8.93 110.85-9.41Q110.77-9.90 110.67-10.42Q110.56-10.94 110.48-11.47Q110.40-12.01 110.40-12.54L110.40-12.54Q110.40-13.11 110.47-13.67Q110.54-14.24 110.64-14.80Q110.73-15.37 110.83-15.93Q110.93-16.48 110.97-17.05L110.97-17.05Q111.01-17.58 111.02-18.13Q111.03-18.67 111.06-19.22Q111.09-19.77 111.16-20.29Q111.24-20.82 111.44-21.33L111.44-21.33Q111.63-21.88 111.94-22.36Q112.24-22.85 112.53-23.34Q112.82-23.83 113.08-24.34Q113.33-24.84 113.47-25.43L113.47-25.43Q113.55-25.80 113.96-26.12Q114.37-26.45 114.97-26.73Q115.58-27.01 116.29-27.24Q117.00-27.46 117.71-27.63Q118.41-27.79 119.01-27.88Q119.60-27.97 119.97-27.97L119.97-27.97Q120.95-27.97 121.81-27.72Q122.67-27.48 123.55-27.09L123.55-27.09Q123.94-26.91 124.40-26.81Q124.86-26.70 125.27-26.70L125.27-26.70Q125.68-26.70 125.88-26.85Q126.09-26.99 126.20-27.20Q126.32-27.40 126.40-27.59Q126.48-27.77 126.63-27.87L126.63-27.87L126.57-27.85Q126.61-27.89 126.71-27.90Q126.81-27.91 126.93-27.91L126.93-27.91Q127.08-27.89 127.31-27.83Q127.53-27.77 127.77-27.70Q128-27.62 128.21-27.53Q128.41-27.44 128.51-27.36L128.51-27.36Q128.57-27.32 128.70-27.11Q128.84-26.89 128.99-26.64Q129.13-26.39 129.24-26.17Q129.35-25.96 129.35-25.90L129.35-25.90Q129.35-25.41 129.49-24.98Q129.64-24.55 129.64-24.06L129.64-24.06Q129.64-23.55 129.49-23.07Q129.35-22.58 129.35-22.07L129.35-22.07Q129.35-21.45 129.38-20.85Q129.41-20.25 129.41-19.63L129.41-19.63Q129.41-19.06 129.36-18.51Q129.31-17.95 129.19-17.40L129.19-17.40Q129.15-17.25 129.11-17.03Q129.07-16.82 129.01-16.62Q128.94-16.43 128.83-16.29Q128.72-16.15 128.55-16.15L128.55-16.15Q128.37-16.15 128.23-16.21L128.23-16.21Q128.14-16.19 128.06-16.18Q127.98-16.17 127.88-16.17L127.88-16.17Q127.71-16.17 127.67-16.23Q127.63-16.29 127.63-16.38Q127.63-16.46 127.60-16.57Q127.57-16.68 127.39-16.78L127.39-16.78Q127.28-16.86 127.08-16.88Q126.89-16.89 126.70-16.92Q126.52-16.95 126.38-17.04Q126.24-17.13 126.24-17.32L126.24-17.32Q126.24-17.54 126.33-17.55Q126.42-17.56 126.54-17.48Q126.67-17.40 126.83-17.33Q126.98-17.27 127.12-17.32L127.12-17.32Q126.85-17.64 126.64-17.98Q126.44-18.32 126.23-18.67Q126.03-19.02 125.81-19.38Q125.60-19.73 125.32-20.02L125.32-20.02Q125.09-20.27 124.93-20.61Q124.78-20.94 124.63-21.28Q124.48-21.62 124.32-21.92Q124.15-22.23 123.90-22.42L123.90-22.42Q123-23.11 121.92-23.62Q120.83-24.14 119.66-24.14L119.66-24.14Q118.84-24.14 118.15-23.90Q117.45-23.65 116.77-23.24L116.77-23.24Q116.50-23.09 116.25-22.97Q116.01-22.85 115.78-22.71Q115.56-22.56 115.39-22.35Q115.23-22.15 115.15-21.80L115.15-21.80Q115.05-21.45 115.06-21.07Q115.07-20.70 114.88-20.39L114.88-20.39Q114.78-20.23 114.57-20.14Q114.37-20.04 114.31-19.84L114.31-19.84Q114.15-19.39 114.12-18.91Q114.09-18.42 114.08-17.91Q114.07-17.40 114.05-16.88Q114.04-16.37 113.90-15.90L113.90-15.90Q113.78-15.51 113.73-15.12Q113.68-14.73 113.68-14.34L113.68-14.34Q113.68-13.59 113.73-12.88Q113.78-12.17 113.78-11.45L113.78-11.45Q113.78-10.57 113.87-9.73Q113.96-8.89 114.19-8.05L114.19-8.05Q114.37-7.42 114.68-6.85Q114.99-6.27 115.15-5.64L115.15-5.64Q115.23-5.31 115.43-4.94Q115.64-4.57 115.92-4.26Q116.20-3.95 116.55-3.74Q116.91-3.54 117.28-3.54L117.28-3.54Q117.55-3.54 117.80-3.60Q118.06-3.67 118.33-3.67L118.33-3.67Q118.63-3.67 118.92-3.62Q119.21-3.57 119.50-3.57L119.50-3.57Q120.03-3.57 120.61-3.71Q121.18-3.85 121.57-4.26L121.57-4.26Q121.85-4.55 122.20-4.67Q122.55-4.79 122.91-4.86Q123.27-4.94 123.61-5.07Q123.94-5.20 124.19-5.53L124.19-5.53Q124.35-5.74 124.51-6.19Q124.68-6.64 124.86-7.13Q125.03-7.62 125.22-8.02Q125.40-8.42 125.60-8.52L125.60-8.52Q125.77-8.61 125.82-9.01Q125.87-9.41 125.87-9.96L125.87-9.96L125.87-10.86Q125.87-11.25 125.89-11.62Q125.91-11.99 125.98-12.29Q126.05-12.58 126.18-12.75Q126.32-12.93 126.55-12.93L126.55-12.93Q126.77-12.93 126.90-12.78Q127.02-12.64 127.22-12.64L127.22-12.64Q127.41-12.64 127.60-12.76Q127.79-12.89 128-12.89L128-12.89Q128.29-12.89 128.54-12.64Q128.78-12.38 128.99-12.07Q129.19-11.76 129.32-11.49Q129.45-11.23 129.50-11.21L129.50-11.21Q129.70-11.17 129.73-10.89Q129.76-10.61 129.76-10.43Z M170.64-13.14L170.64-13.14Q170.64-12.73 170.56-12.35Q170.48-11.97 170.39-11.59Q170.29-11.21 170.21-10.82Q170.13-10.43 170.13-10.04L170.13-10.04Q170.13-9.88 170.16-9.74Q170.19-9.59 170.19-9.43L170.19-9.43Q170.19-9.04 170.06-8.69Q169.94-8.34 169.76-8.01L169.76-8.01Q169.61-7.71 169.58-7.40Q169.55-7.09 169.54-6.78Q169.53-6.46 169.47-6.15Q169.41-5.84 169.23-5.57L169.23-5.57Q169.20-5.37 169.13-4.99Q169.06-4.61 168.96-4.45L168.96-4.45Q168.94-4.41 168.84-4.39Q168.75-4.38 168.63-4.36Q168.51-4.34 168.38-4.28Q168.24-4.22 168.14-4.10L168.14-4.10Q168.04-4.00 167.98-3.83Q167.93-3.65 167.85-3.48Q167.77-3.30 167.66-3.17Q167.55-3.05 167.38-3.05L167.38-3.05Q167.20-3.05 167.07-3.12Q166.93-3.18 166.79-3.25Q166.66-3.32 166.52-3.36Q166.38-3.40 166.19-3.34L166.19-3.34Q166.25-3.30 166.23-3.15Q166.21-3.01 166.24-2.85Q166.27-2.70 166.40-2.56Q166.54-2.42 166.89-2.42L166.89-2.42Q167.07-2.42 167.23-2.44Q167.40-2.46 167.57-2.50L167.57-2.50Q167.42-2.07 167.20-1.83Q166.99-1.58 166.72-1.40Q166.46-1.21 166.18-1.03Q165.89-0.84 165.62-0.55L165.62-0.55Q165.29-0.21 164.99-0.14Q164.68-0.06 164.27 0.06L164.27 0.06Q163.80 0.20 163.61 0.39Q163.41 0.59 163.18 0.76Q162.95 0.94 162.54 1.06Q162.14 1.19 161.29 1.19L161.29 1.19Q160.50 1.19 159.73 1.13Q158.96 1.07 158.20 0.98L158.20 0.98Q157.85 0.94 157.62 0.85Q157.40 0.76 157.20 0.65Q157.01 0.55 156.81 0.43Q156.62 0.31 156.32 0.20L156.32 0.20Q156.17 0.14 155.95 0.05Q155.74-0.04 155.50-0.14Q155.27-0.23 155.07-0.34Q154.88-0.45 154.76-0.55L154.76-0.55Q154.63-0.66 154.58-0.81Q154.53-0.96 154.49-1.12Q154.45-1.29 154.40-1.44Q154.35-1.58 154.21-1.68L154.21-1.68Q153.92-1.72 153.65-1.79Q153.38-1.86 153.10-1.95L153.10-1.95Q153.02-2.17 152.96-2.37Q152.89-2.58 152.81-2.79L152.81-2.79Q152.55-3.07 152.32-3.25Q152.09-3.44 151.91-3.63Q151.73-3.83 151.61-4.09Q151.48-4.36 151.44-4.79L151.44-4.79Q151.38-5.29 151.21-5.77Q151.03-6.25 150.85-6.72Q150.66-7.19 150.51-7.68Q150.37-8.16 150.37-8.67L150.37-8.67Q150.37-9.20 150.58-9.75L150.58-9.75Q150.02-10.55 149.88-11.49Q149.74-12.44 149.74-13.40L149.74-13.40Q149.74-13.71 149.75-14.01Q149.76-14.32 149.76-14.61L149.76-14.61Q149.76-14.94 149.62-15.13Q149.47-15.31 149.47-15.59L149.47-15.59Q149.47-16.02 149.60-16.43Q149.72-16.84 149.76-17.27L149.76-17.27Q149.51-17.30 149.43-17.46L149.43-17.46L149.47-17.54Q149.61-17.77 149.69-17.97Q149.78-18.16 149.82-18.34Q149.86-18.52 149.90-18.71Q149.94-18.91 150.00-19.16L150.00-19.16Q150.15-19.96 150.40-20.72Q150.64-21.48 150.88-22.27L150.88-22.27Q151.13-23.16 151.50-23.85Q151.87-24.53 152.65-25.12L152.65-25.12Q152.98-25.39 153.26-25.70Q153.53-26.02 153.65-26.45L153.65-26.45Q153.75-26.52 153.86-26.54Q153.98-26.56 154.10-26.56L154.10-26.56L154.25-26.56Q154.39-26.56 154.52-26.59Q154.64-26.62 154.76-26.72L154.76-26.72Q155.05-26.99 155.28-27.11Q155.50-27.23 155.89-27.23L155.89-27.23Q156.17-27.23 156.42-27.18Q156.68-27.13 156.95-27.07L156.95-27.07Q157.05-27.17 157.23-27.33Q157.42-27.50 157.55-27.56L157.55-27.56L157.55-27.50Q157.55-27.42 157.58-27.35Q157.61-27.29 157.71-27.29L157.71-27.29Q157.96-27.29 158.20-27.40Q158.43-27.52 158.69-27.56L158.69-27.56Q159.25-27.66 159.82-27.86Q160.39-28.07 160.97-28.07L160.97-28.07Q161.60-28.07 162.31-27.99Q163.02-27.91 163.71-27.70Q164.39-27.48 164.98-27.10Q165.56-26.72 165.91-26.11L165.91-26.11Q166.07-25.84 166.23-25.69Q166.38-25.55 166.54-25.44Q166.70-25.33 166.85-25.22Q167.01-25.12 167.18-24.92L167.18-24.92Q167.55-24.49 167.78-23.99Q168.00-23.50 168.41-23.11L168.41-23.11Q168.92-22.64 169.17-21.97Q169.41-21.31 169.41-20.63L169.41-20.63Q169.41-20.41 169.35-20.20Q169.29-19.98 169.29-19.75L169.29-19.75Q169.29-19.55 169.38-19.34Q169.47-19.12 169.59-18.89Q169.70-18.65 169.80-18.40Q169.90-18.14 169.94-17.91L169.94-17.91Q170.00-17.38 170.11-16.88Q170.23-16.39 170.35-15.86L170.35-15.86Q170.50-15.20 170.58-14.51Q170.66-13.83 170.64-13.14ZM167.46-13.28L167.46-13.28Q167.46-14.38 167.27-15.45Q167.09-16.52 166.91-17.60L166.91-17.60Q166.83-17.99 166.67-18.34Q166.50-18.69 166.38-19.06L166.38-19.06Q166.15-19.77 165.93-20.47Q165.72-21.17 165.50-21.88L165.50-21.88Q165.37-22.30 164.96-22.63Q164.55-22.95 164-23.17Q163.45-23.40 162.82-23.54Q162.18-23.69 161.60-23.78Q161.01-23.87 160.51-23.90Q160.02-23.93 159.76-23.93L159.76-23.93L160.02-23.95L159.80-23.93Q159.37-23.93 158.95-23.96Q158.53-24.00 158.10-24.00L158.10-24.00Q157.75-24.00 157.41-23.96Q157.07-23.91 156.79-23.69L156.79-23.69Q156.15-23.18 155.58-22.74Q155.02-22.30 154.64-21.54L154.64-21.54Q154.53-21.29 154.39-21.18Q154.25-21.07 154.13-20.97Q154-20.86 153.90-20.72Q153.80-20.59 153.77-20.27L153.77-20.27Q153.67-19.71 153.54-19.15Q153.41-18.59 153.41-18.03L153.41-18.03Q153.41-17.42 153.31-16.83Q153.20-16.23 152.96-15.66L152.96-15.66Q152.91-15.51 152.86-15.37Q152.81-15.23 152.81-15.08L152.81-15.08Q152.81-14.79 152.95-14.58Q153.08-14.38 153.08-14.22L153.08-14.22Q153.08-14.14 153.03-14.13Q152.98-14.12 152.94-14.09Q152.89-14.06 152.84-13.96Q152.79-13.87 152.79-13.61L152.79-13.61Q152.79-13.05 152.80-12.46Q152.81-11.88 152.91-11.31L152.91-11.31Q152.96-10.98 153.11-10.67Q153.26-10.37 153.26-10.04L153.26-10.04Q153.26-9.82 153.16-9.61Q153.06-9.39 153.06-9.16L153.06-9.16Q153.06-8.89 153.22-8.72Q153.38-8.55 153.53-8.34L153.53-8.34Q153.65-8.18 153.74-7.94Q153.82-7.70 153.91-7.48Q154-7.27 154.08-7.11Q154.16-6.95 154.25-6.95L154.25-6.95Q154.33-6.95 154.39-6.98Q154.45-7.01 154.53-7.01L154.53-7.01Q154.92-7.01 155.12-6.67Q155.33-6.33 155.33-6.00L155.33-6.00Q155.33-5.72 155.48-5.54Q155.64-5.35 155.86-5.20Q156.07-5.04 156.29-4.89Q156.52-4.75 156.68-4.57L156.68-4.57Q156.93-4.28 157.08-4.18Q157.22-4.08 157.34-4.05Q157.46-4.02 157.56-4.00Q157.67-3.98 157.85-3.87L157.85-3.87Q158.06-3.71 158.29-3.53Q158.51-3.34 158.73-3.18L158.73-3.18Q159.33-2.75 160.08-2.67Q160.84-2.58 161.56-2.58L161.56-2.58Q161.85-2.58 162.11-2.71Q162.36-2.85 162.61-3.02Q162.87-3.18 163.13-3.32Q163.39-3.46 163.71-3.46L163.71-3.46Q163.96-3.46 164.23-3.34L164.23-3.34Q164.68-4.02 165.09-4.43Q165.50-4.84 165.84-5.23Q166.17-5.63 166.40-6.13Q166.64-6.64 166.73-7.52L166.73-7.52Q166.77-7.89 166.94-8.21Q167.11-8.54 167.14-8.89L167.14-8.89Q167.24-9.67 167.25-10.45Q167.26-11.23 167.38-12.01L167.38-12.01Q167.42-12.32 167.44-12.64Q167.46-12.95 167.46-13.28Z M214.45-1.41L214.45-1.41Q214.34-1.00 214.05-0.75Q213.77-0.51 213.40-0.37Q213.03-0.23 212.61-0.19Q212.19-0.14 211.82-0.14L211.82-0.14Q211.25-0.14 210.70-0.21Q210.16-0.27 209.61-0.37L209.61-0.37Q209.32-0.41 208.88-0.43Q208.44-0.45 208.01-0.53Q207.58-0.61 207.28-0.81Q206.97-1.02 206.97-1.45L206.97-1.45Q206.97-1.93 207.17-2.16Q207.36-2.38 207.66-2.47Q207.95-2.56 208.30-2.58Q208.65-2.60 208.95-2.71Q209.24-2.81 209.43-3.06Q209.63-3.30 209.63-3.85L209.63-3.85Q209.63-4.20 209.56-4.55Q209.49-4.90 209.41-5.24Q209.34-5.59 209.27-5.93Q209.20-6.27 209.20-6.62L209.20-6.62Q209.20-6.86 209.35-7.12Q209.49-7.38 209.49-7.71L209.49-7.71Q209.49-8.32 209.39-8.85Q209.30-9.38 209.08-9.94L209.08-9.94Q208.95-10.31 208.95-10.63L208.95-10.63Q208.95-10.92 209.07-11.19Q209.20-11.46 209.20-11.78L209.20-11.78Q209.20-12.19 209.06-12.57Q208.93-12.95 208.93-13.36L208.93-13.36Q208.93-13.91 209.04-14.43Q209.16-14.96 209.16-15.51L209.16-15.51Q209.16-15.88 209.08-16.33Q209.00-16.78 208.88-17.24Q208.75-17.70 208.61-18.13Q208.48-18.57 208.36-18.93L208.36-18.93Q207.97-18.75 207.72-18.47Q207.48-18.18 207.33-17.83Q207.19-17.48 207.10-17.09Q207.01-16.70 206.95-16.33L206.95-16.33Q206.82-15.57 206.53-14.84Q206.25-14.12 206.13-13.36L206.13-13.36Q205.98-12.42 205.95-11.50Q205.92-10.59 205.85-9.68Q205.78-8.77 205.63-7.87Q205.47-6.97 205.06-6.07L205.06-6.07Q204.90-5.74 204.86-5.45Q204.82-5.16 204.82-4.84L204.82-4.84Q204.82-4.57 204.84-4.30Q204.86-4.02 204.86-3.73L204.86-3.73Q204.86-3.13 204.74-2.82Q204.61-2.52 204.45-2.32Q204.30-2.13 204.14-1.94Q203.98-1.76 203.91-1.39L203.91-1.39Q203.85-1.07 203.58-0.91Q203.32-0.74 202.97-0.63Q202.62-0.53 202.27-0.46Q201.91-0.39 201.68-0.27L201.68-0.27Q201.46-0.72 201.16-1.11Q200.86-1.50 200.61-1.93L200.61-1.93Q200.33-2.38 200.26-2.89Q200.20-3.40 200.02-3.91L200.02-3.91Q199.94-4.14 199.83-4.32Q199.73-4.49 199.64-4.68Q199.55-4.86 199.48-5.06Q199.41-5.25 199.41-5.53L199.41-5.53Q199.41-5.74 199.43-5.93Q199.45-6.11 199.45-6.33L199.45-6.33Q199.45-6.80 199.30-7.32L199.30-7.32Q198.98-8.32 198.75-9.28Q198.52-10.23 198.42-11.29L198.42-11.29Q198.32-12.25 198.26-13.22Q198.20-14.20 197.85-15.12L197.85-15.12Q197.68-15.57 197.44-15.98Q197.21-16.39 197.05-16.84L197.05-16.84Q197.01-16.93 196.98-17.15Q196.95-17.36 196.90-17.60Q196.86-17.83 196.79-18.02Q196.72-18.20 196.64-18.22L196.64-18.22Q196.54-18.14 196.50-17.99L196.50-17.99Q196.37-17.64 196.29-17.50Q196.21-17.36 196.14-17.28Q196.07-17.19 195.98-17.09Q195.88-16.99 195.70-16.74L195.70-16.74Q195.55-16.52 195.55-16.27L195.55-16.27Q195.55-15.82 195.74-15.40Q195.94-14.98 195.94-14.53L195.94-14.53Q195.94-14.32 195.86-14.09Q195.78-13.87 195.78-13.65L195.78-13.65Q195.78-13.09 195.95-12.53Q196.11-11.97 196.11-11.41L196.11-11.41Q196.11-10.96 195.98-10.54Q195.84-10.12 195.84-9.67L195.84-9.67Q195.84-9.20 195.95-8.74Q196.05-8.28 196.05-7.81L196.05-7.81Q196.05-7.42 195.98-7.06Q195.90-6.70 195.81-6.33Q195.72-5.96 195.64-5.59Q195.57-5.21 195.57-4.82L195.57-4.82Q195.57-4.02 195.88-3.69Q196.19-3.36 196.63-3.18Q197.07-3.01 197.54-2.84Q198.01-2.68 198.34-2.23L198.34-2.23Q198.16-1.93 198.08-1.59Q197.99-1.25 197.81-0.96L197.81-0.96Q197.66-0.70 197.49-0.61Q197.32-0.51 197.16-0.48Q196.99-0.45 196.80-0.42Q196.60-0.39 196.39-0.27L196.39-0.27Q196.17-0.16 196.08-0.05Q196.00 0.06 195.92 0.15Q195.84 0.23 195.69 0.28Q195.55 0.33 195.23 0.33L195.23 0.33Q194.90 0.33 194.57 0.25Q194.24 0.18 193.91 0.18L193.91 0.18Q193.55 0.18 193.22 0.28Q192.89 0.39 192.54 0.39L192.54 0.39Q192.13 0.39 191.72 0.24Q191.31 0.10 190.99-0.17Q190.66-0.43 190.46-0.79Q190.25-1.15 190.25-1.60L190.25-1.60Q190.25-2.27 190.53-2.62Q190.80-2.97 191.22-3.17Q191.64-3.38 192.13-3.53Q192.62-3.67 193.05-3.91L193.05-3.91Q193.14-4.24 193.16-4.58Q193.18-4.92 193.18-5.27L193.18-5.27Q193.18-5.84 193.13-6.41Q193.09-6.97 193.09-7.54L193.09-7.54Q193.09-7.91 193.16-8.27Q193.24-8.63 193.24-9.02L193.24-9.02Q193.24-9.22 193.18-9.39L193.18-9.39Q192.91-10.12 192.84-10.78Q192.77-11.45 192.77-12.23L192.77-12.23Q192.77-12.56 192.86-12.87Q192.95-13.18 193.06-13.50Q193.16-13.81 193.25-14.12Q193.34-14.43 193.34-14.77L193.34-14.77Q193.34-15.37 193.26-15.96Q193.18-16.54 193.18-17.15L193.18-17.15Q193.18-17.54 193.26-17.91Q193.34-18.28 193.34-18.67L193.34-18.67Q193.34-19.06 193.18-19.42Q193.03-19.79 193.03-20.18L193.03-20.18Q193.03-20.45 193.17-20.66Q193.32-20.88 193.32-21.15L193.32-21.15Q193.32-21.31 193.16-21.46Q193.01-21.62 193.01-21.97L193.01-21.97Q193.01-22.27 193.04-22.56Q193.07-22.85 193.07-23.14L193.07-23.14Q193.07-23.73 192.87-24.07Q192.68-24.41 192.39-24.60Q192.11-24.79 191.78-24.86Q191.45-24.94 191.16-25.03Q190.88-25.12 190.68-25.23Q190.49-25.35 190.49-25.63L190.49-25.63Q190.49-25.88 190.77-26.14Q191.05-26.41 191.48-26.66Q191.91-26.91 192.42-27.16Q192.93-27.40 193.36-27.60Q193.79-27.79 194.09-27.93Q194.39-28.07 194.43-28.13L194.43-28.13Q194.51-27.99 194.65-27.94Q194.79-27.89 194.95-27.88Q195.12-27.87 195.28-27.87Q195.45-27.87 195.57-27.83L195.57-27.83Q195.76-27.77 195.86-27.68Q195.96-27.58 196.04-27.48Q196.13-27.38 196.29-27.29Q196.45-27.19 196.76-27.11L196.76-27.11Q197.50-26.91 197.88-26.55Q198.26-26.19 198.26-25.37L198.26-25.37Q198.26-25.16 198.22-24.95Q198.18-24.75 198.18-24.53L198.18-24.53L198.67-23.14Q198.73-22.93 198.80-22.71Q198.87-22.48 198.91-22.27L198.91-22.27Q199.12-22.09 199.24-21.74Q199.36-21.39 199.40-20.99Q199.45-20.59 199.47-20.20Q199.49-19.80 199.53-19.53L199.53-19.53Q199.59-19.08 199.74-18.66Q199.88-18.24 199.88-17.79L199.88-17.79Q199.88-17.52 199.79-17.25Q199.71-16.97 199.71-16.68L199.71-16.68Q199.71-16.17 199.84-15.68Q199.98-15.20 200.16-14.72Q200.33-14.24 200.48-13.75Q200.63-13.26 200.64-12.75L200.64-12.75Q200.64-12.52 200.69-12.03Q200.74-11.54 200.83-10.95Q200.92-10.35 201.04-9.72Q201.17-9.08 201.36-8.55Q201.54-8.03 201.79-7.70Q202.03-7.36 202.32-7.36L202.32-7.36Q202.68-7.36 202.77-7.57Q202.87-7.77 202.89-8.05Q202.91-8.32 202.95-8.59Q202.99-8.87 203.22-8.98L203.22-8.98Q203.42-9.10 203.56-9.44Q203.71-9.79 203.81-10.21Q203.91-10.63 203.96-11.03Q204.00-11.43 204.02-11.64L204.02-11.64Q204.08-12.66 204.08-13.73Q204.08-14.80 204.12-15.89Q204.16-16.97 204.30-18.02Q204.43-19.06 204.75-20.04L204.75-20.04Q204.80-20.20 204.90-20.33Q205-20.47 205.10-20.62Q205.20-20.76 205.26-20.91Q205.33-21.05 205.33-21.23L205.33-21.23Q205.33-21.35 205.27-21.44Q205.21-21.52 205.15-21.58Q205.08-21.64 205.02-21.70Q204.96-21.76 204.96-21.84L204.96-21.84Q204.96-21.93 205.02-21.98Q205.08-22.03 205.14-22.09L205.14-22.09Q205.41-22.40 205.48-22.96Q205.55-23.52 205.57-24.15Q205.59-24.79 205.62-25.40Q205.64-26.02 205.86-26.45L205.86-26.45Q206.09-26.35 206.31-26.35L206.31-26.35Q206.58-26.35 206.84-26.46Q207.09-26.56 207.33-26.68Q207.58-26.80 207.84-26.90Q208.11-27.01 208.40-27.01L208.40-27.01Q208.50-27.01 208.61-27.00Q208.73-26.99 208.83-26.99L208.83-26.99Q209.22-26.99 209.53-27.17Q209.84-27.34 210.18-27.34L210.18-27.34Q210.31-27.34 210.37-27.29Q210.43-27.23 210.46-27.17Q210.49-27.11 210.53-27.05Q210.57-26.99 210.64-26.99L210.64-26.99Q210.98-26.99 211.32-27.07Q211.66-27.15 211.99-27.15L211.99-27.15Q212.21-27.15 212.34-27.10Q212.48-27.05 212.62-26.86L212.62-26.86Q212.77-26.62 213.05-26.55Q213.32-26.48 213.59-26.42Q213.87-26.35 214.07-26.22Q214.28-26.09 214.28-25.76L214.28-25.76Q214.28-25.08 213.95-24.82Q213.61-24.57 213.17-24.48Q212.73-24.39 212.31-24.33Q211.89-24.26 211.72-23.95L211.72-23.95Q211.52-23.61 211.48-23.22Q211.45-22.83 211.29-22.46L211.29-22.46Q211.23-22.30 211.19-22.17Q211.15-22.03 211.15-21.88L211.15-21.88Q211.15-21.56 211.23-21.27Q211.31-20.98 211.42-20.69Q211.52-20.41 211.62-20.12Q211.72-19.82 211.76-19.53L211.76-19.53Q211.88-18.48 211.88-17.42L211.88-17.42Q211.88-16.80 211.81-16.17Q211.74-15.55 211.66-14.92Q211.58-14.30 211.51-13.68Q211.45-13.07 211.45-12.46L211.45-12.46Q211.45-11.99 211.15-11.70L211.15-11.70L211.13-11.25Q211.13-10.68 211.21-10.12Q211.29-9.55 211.39-8.99Q211.48-8.44 211.56-7.87Q211.64-7.30 211.64-6.74L211.64-6.74Q211.64-5.98 211.43-5.23Q211.21-4.49 211.21-3.73L211.21-3.73Q211.21-3.16 211.45-2.83Q211.68-2.50 212.30-2.50L212.30-2.50Q212.58-2.50 212.86-2.53Q213.14-2.56 213.42-2.56L213.42-2.56Q213.69-2.56 213.98-2.50Q214.28-2.44 214.49-2.23L214.49-2.23Q214.49-2.15 214.52-1.99Q214.55-1.84 214.56-1.69Q214.57-1.54 214.55-1.45Q214.53-1.35 214.45-1.41ZM196.41-20.66L196.41-20.66Q196.41-21.04 196.30-21.42Q196.19-21.80 195.84-21.99L195.84-21.99Q195.84-21.82 195.83-21.63Q195.82-21.45 195.82-21.27L195.82-21.27Q195.82-20.96 195.91-20.65Q196.00-20.35 196.39-20.33L196.39-20.33Q196.41-20.41 196.41-20.49Q196.41-20.57 196.41-20.66ZM211.64-2.56L211.64-2.56Q211.64-2.68 211.48-2.75Q211.33-2.83 211.23-2.83L211.23-2.83Q211.17-2.83 211.06-2.81Q210.96-2.79 210.85-2.75Q210.74-2.71 210.66-2.66Q210.59-2.60 210.59-2.52L210.59-2.52Q210.59-2.40 210.77-2.37Q210.96-2.34 211.05-2.34L211.05-2.34Q211.15-2.34 211.40-2.38Q211.64-2.42 211.64-2.56ZM203.09-5.08L203.07-5.29Q202.99-5.29 202.92-5.30Q202.85-5.31 202.77-5.31L202.77-5.31Q202.44-5.31 202.20-5.19Q201.95-5.06 201.95-4.67L201.95-4.67L201.95-4.45Q202.03-4.45 202.10-4.44Q202.17-4.43 202.25-4.43L202.25-4.43Q202.58-4.43 202.83-4.56Q203.09-4.69 203.09-5.08L203.09-5.08Z M258.36-1.41L258.36-1.41Q258.25-1.00 257.96-0.75Q257.68-0.51 257.31-0.37Q256.94-0.23 256.52-0.19Q256.10-0.14 255.73-0.14L255.73-0.14Q255.16-0.14 254.61-0.21Q254.07-0.27 253.52-0.37L253.52-0.37Q253.23-0.41 252.79-0.43Q252.35-0.45 251.92-0.53Q251.49-0.61 251.19-0.81Q250.88-1.02 250.88-1.45L250.88-1.45Q250.88-1.93 251.08-2.16Q251.27-2.38 251.57-2.47Q251.86-2.56 252.21-2.58Q252.56-2.60 252.86-2.71Q253.15-2.81 253.34-3.06Q253.54-3.30 253.54-3.85L253.54-3.85Q253.54-4.20 253.47-4.55Q253.40-4.90 253.32-5.24Q253.25-5.59 253.18-5.93Q253.11-6.27 253.11-6.62L253.11-6.62Q253.11-6.86 253.26-7.12Q253.40-7.38 253.40-7.71L253.40-7.71Q253.40-8.32 253.30-8.85Q253.21-9.38 252.99-9.94L252.99-9.94Q252.86-10.31 252.86-10.63L252.86-10.63Q252.86-10.92 252.98-11.19Q253.11-11.46 253.11-11.78L253.11-11.78Q253.11-12.19 252.97-12.57Q252.84-12.95 252.84-13.36L252.84-13.36Q252.84-13.91 252.95-14.43Q253.07-14.96 253.07-15.51L253.07-15.51Q253.07-15.88 252.99-16.33Q252.91-16.78 252.79-17.24Q252.66-17.70 252.52-18.13Q252.39-18.57 252.27-18.93L252.27-18.93Q251.88-18.75 251.63-18.47Q251.39-18.18 251.24-17.83Q251.10-17.48 251.01-17.09Q250.92-16.70 250.86-16.33L250.86-16.33Q250.73-15.57 250.44-14.84Q250.16-14.12 250.04-13.36L250.04-13.36Q249.89-12.42 249.86-11.50Q249.83-10.59 249.76-9.68Q249.69-8.77 249.54-7.87Q249.38-6.97 248.97-6.07L248.97-6.07Q248.81-5.74 248.77-5.45Q248.73-5.16 248.73-4.84L248.73-4.84Q248.73-4.57 248.75-4.30Q248.77-4.02 248.77-3.73L248.77-3.73Q248.77-3.13 248.65-2.82Q248.52-2.52 248.36-2.32Q248.21-2.13 248.05-1.94Q247.89-1.76 247.82-1.39L247.82-1.39Q247.76-1.07 247.49-0.91Q247.23-0.74 246.88-0.63Q246.53-0.53 246.18-0.46Q245.82-0.39 245.59-0.27L245.59-0.27Q245.38-0.72 245.07-1.11Q244.77-1.50 244.52-1.93L244.52-1.93Q244.24-2.38 244.17-2.89Q244.11-3.40 243.93-3.91L243.93-3.91Q243.85-4.14 243.74-4.32Q243.64-4.49 243.55-4.68Q243.46-4.86 243.39-5.06Q243.32-5.25 243.32-5.53L243.32-5.53Q243.32-5.74 243.34-5.93Q243.36-6.11 243.36-6.33L243.36-6.33Q243.36-6.80 243.21-7.32L243.21-7.32Q242.89-8.32 242.66-9.28Q242.43-10.23 242.33-11.29L242.33-11.29Q242.23-12.25 242.17-13.22Q242.11-14.20 241.76-15.12L241.76-15.12Q241.59-15.57 241.35-15.98Q241.12-16.39 240.96-16.84L240.96-16.84Q240.92-16.93 240.89-17.15Q240.86-17.36 240.81-17.60Q240.77-17.83 240.70-18.02Q240.63-18.20 240.55-18.22L240.55-18.22Q240.45-18.14 240.41-17.99L240.41-17.99Q240.28-17.64 240.20-17.50Q240.12-17.36 240.05-17.28Q239.98-17.19 239.89-17.09Q239.79-16.99 239.61-16.74L239.61-16.74Q239.46-16.52 239.46-16.27L239.46-16.27Q239.46-15.82 239.65-15.40Q239.85-14.98 239.85-14.53L239.85-14.53Q239.85-14.32 239.77-14.09Q239.69-13.87 239.69-13.65L239.69-13.65Q239.69-13.09 239.86-12.53Q240.02-11.97 240.02-11.41L240.02-11.41Q240.02-10.96 239.89-10.54Q239.75-10.12 239.75-9.67L239.75-9.67Q239.75-9.20 239.86-8.74Q239.96-8.28 239.96-7.81L239.96-7.81Q239.96-7.42 239.89-7.06Q239.81-6.70 239.72-6.33Q239.63-5.96 239.55-5.59Q239.48-5.21 239.48-4.82L239.48-4.82Q239.48-4.02 239.79-3.69Q240.10-3.36 240.54-3.18Q240.98-3.01 241.45-2.84Q241.92-2.68 242.25-2.23L242.25-2.23Q242.07-1.93 241.99-1.59Q241.90-1.25 241.72-0.96L241.72-0.96Q241.57-0.70 241.40-0.61Q241.23-0.51 241.07-0.48Q240.90-0.45 240.71-0.42Q240.51-0.39 240.30-0.27L240.30-0.27Q240.08-0.16 239.99-0.05Q239.91 0.06 239.83 0.15Q239.75 0.23 239.60 0.28Q239.46 0.33 239.14 0.33L239.14 0.33Q238.81 0.33 238.48 0.25Q238.15 0.18 237.82 0.18L237.82 0.18Q237.46 0.18 237.13 0.28Q236.80 0.39 236.45 0.39L236.45 0.39Q236.04 0.39 235.63 0.24Q235.22 0.10 234.90-0.17Q234.57-0.43 234.37-0.79Q234.16-1.15 234.16-1.60L234.16-1.60Q234.16-2.27 234.44-2.62Q234.71-2.97 235.13-3.17Q235.55-3.38 236.04-3.53Q236.53-3.67 236.96-3.91L236.96-3.91Q237.05-4.24 237.07-4.58Q237.09-4.92 237.09-5.27L237.09-5.27Q237.09-5.84 237.04-6.41Q237.00-6.97 237.00-7.54L237.00-7.54Q237.00-7.91 237.07-8.27Q237.15-8.63 237.15-9.02L237.15-9.02Q237.15-9.22 237.09-9.39L237.09-9.39Q236.82-10.12 236.75-10.78Q236.68-11.45 236.68-12.23L236.68-12.23Q236.68-12.56 236.77-12.87Q236.86-13.18 236.97-13.50Q237.07-13.81 237.16-14.12Q237.25-14.43 237.25-14.77L237.25-14.77Q237.25-15.37 237.17-15.96Q237.09-16.54 237.09-17.15L237.09-17.15Q237.09-17.54 237.17-17.91Q237.25-18.28 237.25-18.67L237.25-18.67Q237.25-19.06 237.09-19.42Q236.94-19.79 236.94-20.18L236.94-20.18Q236.94-20.45 237.08-20.66Q237.23-20.88 237.23-21.15L237.23-21.15Q237.23-21.31 237.07-21.46Q236.92-21.62 236.92-21.97L236.92-21.97Q236.92-22.27 236.95-22.56Q236.98-22.85 236.98-23.14L236.98-23.14Q236.98-23.73 236.78-24.07Q236.59-24.41 236.30-24.60Q236.02-24.79 235.69-24.86Q235.36-24.94 235.07-25.03Q234.79-25.12 234.59-25.23Q234.40-25.35 234.40-25.63L234.40-25.63Q234.40-25.88 234.68-26.14Q234.96-26.41 235.39-26.66Q235.82-26.91 236.33-27.16Q236.84-27.40 237.27-27.60Q237.70-27.79 238.00-27.93Q238.30-28.07 238.34-28.13L238.34-28.13Q238.42-27.99 238.56-27.94Q238.70-27.89 238.86-27.88Q239.03-27.87 239.19-27.87Q239.36-27.87 239.48-27.83L239.48-27.83Q239.67-27.77 239.77-27.68Q239.87-27.58 239.96-27.48Q240.04-27.38 240.20-27.29Q240.36-27.19 240.67-27.11L240.67-27.11Q241.41-26.91 241.79-26.55Q242.17-26.19 242.17-25.37L242.17-25.37Q242.17-25.16 242.13-24.95Q242.09-24.75 242.09-24.53L242.09-24.53L242.58-23.14Q242.64-22.93 242.71-22.71Q242.78-22.48 242.82-22.27L242.82-22.27Q243.03-22.09 243.15-21.74Q243.27-21.39 243.31-20.99Q243.36-20.59 243.38-20.20Q243.40-19.80 243.44-19.53L243.44-19.53Q243.50-19.08 243.65-18.66Q243.79-18.24 243.79-17.79L243.79-17.79Q243.79-17.52 243.71-17.25Q243.62-16.97 243.62-16.68L243.62-16.68Q243.62-16.17 243.75-15.68Q243.89-15.20 244.07-14.72Q244.24-14.24 244.39-13.75Q244.54-13.26 244.55-12.75L244.55-12.75Q244.55-12.52 244.60-12.03Q244.65-11.54 244.74-10.95Q244.83-10.35 244.96-9.72Q245.08-9.08 245.27-8.55Q245.45-8.03 245.70-7.70Q245.94-7.36 246.23-7.36L246.23-7.36Q246.59-7.36 246.68-7.57Q246.78-7.77 246.80-8.05Q246.82-8.32 246.86-8.59Q246.90-8.87 247.13-8.98L247.13-8.98Q247.33-9.10 247.47-9.44Q247.62-9.79 247.72-10.21Q247.82-10.63 247.87-11.03Q247.91-11.43 247.93-11.64L247.93-11.64Q247.99-12.66 247.99-13.73Q247.99-14.80 248.03-15.89Q248.07-16.97 248.21-18.02Q248.34-19.06 248.66-20.04L248.66-20.04Q248.71-20.20 248.81-20.33Q248.91-20.47 249.01-20.62Q249.11-20.76 249.17-20.91Q249.24-21.05 249.24-21.23L249.24-21.23Q249.24-21.35 249.18-21.44Q249.13-21.52 249.06-21.58Q248.99-21.64 248.93-21.70Q248.87-21.76 248.87-21.84L248.87-21.84Q248.87-21.93 248.93-21.98Q248.99-22.03 249.05-22.09L249.05-22.09Q249.32-22.40 249.39-22.96Q249.46-23.52 249.48-24.15Q249.50-24.79 249.53-25.40Q249.55-26.02 249.77-26.45L249.77-26.45Q250.00-26.35 250.22-26.35L250.22-26.35Q250.49-26.35 250.75-26.46Q251-26.56 251.24-26.68Q251.49-26.80 251.75-26.90Q252.02-27.01 252.31-27.01L252.31-27.01Q252.41-27.01 252.52-27.00Q252.64-26.99 252.74-26.99L252.74-26.99Q253.13-26.99 253.44-27.17Q253.75-27.34 254.09-27.34L254.09-27.34Q254.22-27.34 254.28-27.29Q254.34-27.23 254.37-27.17Q254.40-27.11 254.44-27.05Q254.48-26.99 254.55-26.99L254.55-26.99Q254.89-26.99 255.23-27.07Q255.57-27.15 255.90-27.15L255.90-27.15Q256.12-27.15 256.25-27.10Q256.39-27.05 256.53-26.86L256.53-26.86Q256.68-26.62 256.96-26.55Q257.23-26.48 257.50-26.42Q257.78-26.35 257.98-26.22Q258.19-26.09 258.19-25.76L258.19-25.76Q258.19-25.08 257.86-24.82Q257.52-24.57 257.08-24.48Q256.64-24.39 256.22-24.33Q255.80-24.26 255.63-23.95L255.63-23.95Q255.43-23.61 255.39-23.22Q255.36-22.83 255.20-22.46L255.20-22.46Q255.14-22.30 255.10-22.17Q255.06-22.03 255.06-21.88L255.06-21.88Q255.06-21.56 255.14-21.27Q255.22-20.98 255.33-20.69Q255.43-20.41 255.53-20.12Q255.63-19.82 255.67-19.53L255.67-19.53Q255.79-18.48 255.79-17.42L255.79-17.42Q255.79-16.80 255.72-16.17Q255.65-15.55 255.57-14.92Q255.49-14.30 255.42-13.68Q255.36-13.07 255.36-12.46L255.36-12.46Q255.36-11.99 255.06-11.70L255.06-11.70L255.04-11.25Q255.04-10.68 255.12-10.12Q255.20-9.55 255.30-8.99Q255.39-8.44 255.47-7.87Q255.55-7.30 255.55-6.74L255.55-6.74Q255.55-5.98 255.34-5.23Q255.12-4.49 255.12-3.73L255.12-3.73Q255.12-3.16 255.36-2.83Q255.59-2.50 256.21-2.50L256.21-2.50Q256.49-2.50 256.77-2.53Q257.05-2.56 257.33-2.56L257.33-2.56Q257.60-2.56 257.89-2.50Q258.19-2.44 258.40-2.23L258.40-2.23Q258.40-2.15 258.43-1.99Q258.46-1.84 258.47-1.69Q258.48-1.54 258.46-1.45Q258.44-1.35 258.36-1.41ZM240.32-20.66L240.32-20.66Q240.32-21.04 240.21-21.42Q240.10-21.80 239.75-21.99L239.75-21.99Q239.75-21.82 239.74-21.63Q239.73-21.45 239.73-21.27L239.73-21.27Q239.73-20.96 239.82-20.65Q239.91-20.35 240.30-20.33L240.30-20.33Q240.32-20.41 240.32-20.49Q240.32-20.57 240.32-20.66ZM255.55-2.56L255.55-2.56Q255.55-2.68 255.39-2.75Q255.24-2.83 255.14-2.83L255.14-2.83Q255.08-2.83 254.97-2.81Q254.87-2.79 254.76-2.75Q254.65-2.71 254.57-2.66Q254.50-2.60 254.50-2.52L254.50-2.52Q254.50-2.40 254.68-2.37Q254.87-2.34 254.96-2.34L254.96-2.34Q255.06-2.34 255.31-2.38Q255.55-2.42 255.55-2.56ZM247.00-5.08L246.98-5.29Q246.90-5.29 246.83-5.30Q246.76-5.31 246.68-5.31L246.68-5.31Q246.35-5.31 246.11-5.19Q245.86-5.06 245.86-4.67L245.86-4.67L245.86-4.45Q245.94-4.45 246.01-4.44Q246.08-4.43 246.16-4.43L246.16-4.43Q246.49-4.43 246.74-4.56Q247.00-4.69 247.00-5.08L247.00-5.08Z M299.68-19.49L299.68-19.49Q299.68-19.41 299.58-19.18Q299.48-18.95 299.35-18.67Q299.23-18.40 299.09-18.16Q298.95-17.93 298.88-17.85L298.88-17.85L298.91-17.83Q298.88-17.83 298.84-17.81L298.84-17.81L298.74-17.81Q298.66-17.79 298.57-17.79Q298.48-17.79 298.39-17.79L298.39-17.79L298.46-17.81Q298.02-17.83 297.65-17.98Q297.29-18.13 297.06-18.54L297.06-18.54Q297.02-18.61 296.94-18.82Q296.86-19.02 296.79-19.26Q296.71-19.49 296.66-19.70Q296.61-19.90 296.61-20L296.61-20Q296.61-20.16 296.64-20.33Q296.67-20.51 296.67-20.66L296.67-20.66Q296.67-21.27 296.55-21.86Q296.43-22.44 296.43-23.05L296.43-23.05Q296.43-23.44 296.53-23.81Q296.63-24.18 296.88-24.49L296.88-24.49L296.79-24.49Q296.55-24.49 296.41-24.64Q296.28-24.79 295.96-24.79L295.96-24.79Q295.22-24.79 294.52-24.61Q293.82-24.43 293.04-24.43L293.04-24.43Q292.72-24.43 292.41-24.44Q292.10-24.45 291.77-24.45L291.77-24.45Q291.16-24.45 290.57-24.32Q289.99-24.18 289.44-24.18L289.44-24.18Q289.38-24.18 289.38-24.20L289.38-24.20Q289.38-24.24 289.52-24.31Q289.66-24.38 289.66-24.41L289.66-24.41Q289.66-24.49 289.53-24.49Q289.40-24.49 289.36-24.49L289.36-24.49Q289.21-24.49 289.10-24.34Q288.99-24.18 288.78-24.12L288.78-24.12Q288.48-24.04 288.15-24.04Q287.82-24.04 287.51-24.04L287.51-24.04Q287.31-24.04 286.94-24.06Q286.57-24.08 286.20-24.15Q285.83-24.22 285.53-24.37Q285.22-24.51 285.18-24.79L285.18-24.79Q284.97-24.73 284.90-24.58Q284.83-24.43 284.78-24.28Q284.73-24.12 284.64-23.99Q284.54-23.87 284.25-23.85L284.25-23.85Q283.70-23.81 283.54-23.50Q283.39-23.18 283.39-22.79L283.39-22.79Q283.39-22.58 283.41-22.36Q283.43-22.15 283.43-21.93L283.43-21.93Q283.43-21.15 283.40-20.38Q283.37-19.61 283.37-18.83L283.37-18.83Q283.37-18.50 283.38-17.94Q283.39-17.38 283.46-16.85Q283.52-16.31 283.66-15.89Q283.80-15.47 284.05-15.41L284.05-15.41Q284.21-15.37 284.38-15.36Q284.56-15.35 284.73-15.35L284.73-15.35Q285.42-15.35 286.07-15.51Q286.73-15.66 287.41-15.66L287.41-15.66Q287.68-15.66 287.93-15.59Q288.17-15.51 288.43-15.51L288.43-15.51Q288.80-15.51 289.00-15.87Q289.21-16.23 289.29-16.71Q289.38-17.19 289.40-17.68Q289.42-18.16 289.42-18.40L289.42-18.40Q289.42-18.89 289.39-19.37Q289.36-19.84 289.36-20.33L289.36-20.33L289.48-20.33Q289.97-20.33 290.40-20.18Q290.83-20.02 291.30-20.02L291.30-20.02Q291.49-20.02 291.59-20.04L291.59-20.04Q291.59-19.65 291.73-19.26Q291.86-18.87 291.86-18.46L291.86-18.46Q291.86-17.95 291.32-17.81L291.32-17.81Q291.47-17.54 291.57-17.27Q291.67-16.99 291.67-16.70L291.67-16.70Q291.67-16.48 291.63-16.28Q291.59-16.07 291.59-15.86L291.59-15.86Q291.59-15.66 291.72-15.56Q291.84-15.45 291.84-15.31L291.84-15.31Q291.84-15.08 291.66-14.73Q291.47-14.38 291.47-14.00L291.47-14.00Q291.47-13.57 291.55-13.11Q291.63-12.64 291.73-12.13Q291.82-11.62 291.90-11.10Q291.98-10.59 291.98-10.06L291.98-10.06Q291.98-9.75 291.95-9.41Q291.92-9.08 291.81-8.78Q291.71-8.48 291.52-8.22Q291.34-7.97 291.04-7.79L291.04-7.79Q290.67-7.83 290.42-8.02Q290.16-8.20 290.00-8.47Q289.83-8.73 289.74-9.05Q289.66-9.38 289.62-9.71L289.62-9.71Q289.54-10.21 289.54-10.64Q289.54-11.07 289.35-11.38Q289.17-11.68 288.65-11.86Q288.13-12.03 287.04-12.03L287.04-12.03Q286.73-12.03 286.15-11.97Q285.57-11.91 285.01-11.77Q284.44-11.62 284.02-11.35Q283.60-11.07 283.60-10.66L283.60-10.66Q283.60-10.43 283.65-10.21Q283.70-9.98 283.70-9.75L283.70-9.75Q283.70-9.55 283.68-9.36Q283.66-9.16 283.66-8.95L283.66-8.95Q283.66-8.42 283.72-7.90Q283.78-7.38 283.78-6.86L283.78-6.86Q283.78-6.29 283.63-5.74Q283.48-5.20 283.48-4.63L283.48-4.63Q283.48-4.00 283.79-3.64Q284.09-3.28 284.56-3.10Q285.03-2.91 285.57-2.85Q286.12-2.79 286.59-2.79L286.59-2.79Q287.53-2.79 288.46-2.91Q289.40-3.03 290.34-3.03L290.34-3.03Q290.93-3.03 291.51-2.97Q292.10-2.91 292.68-2.91L292.68-2.91Q293.13-2.91 293.68-2.94Q294.23-2.97 294.72-3.13Q295.22-3.28 295.58-3.58Q295.95-3.89 296.04-4.45L296.04-4.45Q296.06-4.61 296.15-4.68Q296.24-4.75 296.35-4.79Q296.45-4.84 296.53-4.90Q296.61-4.96 296.61-5.10L296.61-5.10Q296.61-5.25 296.49-5.46Q296.38-5.66 296.34-5.84L296.34-5.84Q296.26-6.21 296.25-6.59Q296.24-6.97 296.24-7.34L296.24-7.34Q296.24-7.93 296.42-8.37Q296.61-8.81 296.61-9.34L296.61-9.34Q296.61-9.49 296.60-9.63Q296.59-9.77 296.59-9.92L296.59-9.92Q296.59-10.04 296.77-10.16Q296.94-10.27 297.18-10.36Q297.41-10.45 297.64-10.51Q297.88-10.57 298.00-10.57L298.00-10.57Q298.48-10.57 298.80-10.22Q299.11-9.88 299.28-9.39Q299.44-8.91 299.50-8.38Q299.56-7.85 299.56-7.48L299.56-7.48Q299.56-6.88 299.46-6.11Q299.36-5.35 299.20-4.55Q299.03-3.75 298.82-3.00Q298.60-2.25 298.39-1.68L298.39-1.68Q298.27-1.41 298.16-1.27Q298.05-1.13 297.93-1.04Q297.80-0.96 297.65-0.87Q297.51-0.78 297.33-0.59L297.33-0.59Q297.18-0.41 296.74-0.35Q296.30-0.29 295.81-0.29L295.81-0.29Q295.44-0.29 295.11-0.31Q294.77-0.33 294.60-0.33L294.60-0.33Q293.95-0.33 293.55-0.18Q293.15-0.02 292.80-0.02L292.80-0.02Q292.55-0.02 292.47-0.13Q292.39-0.23 292.23-0.23L292.23-0.23Q292.10-0.23 291.98-0.12Q291.86 0 291.63 0L291.63 0Q291.39 0 291.15-0.01Q290.91-0.02 290.65-0.02L290.65-0.02Q289.19-0.02 287.74 0.07Q286.30 0.16 284.83 0.20L284.83 0.20Q283.84 0.23 282.86 0.43Q281.88 0.63 280.89 0.63L280.89 0.63Q280.54 0.63 280.09 0.56Q279.64 0.49 279.24 0.31Q278.84 0.14 278.56-0.17Q278.29-0.47 278.29-0.92L278.29-0.92Q278.29-1.35 278.60-1.74Q278.91-2.13 279.35-2.46Q279.79-2.79 280.26-3.08Q280.73-3.36 281.02-3.61L281.02-3.61Q281.00-3.77 281.00-3.91Q281.00-4.04 281.00-4.18L281.00-4.18Q281.00-4.47 281.01-4.77Q281.02-5.06 281.12-5.35L281.12-5.35Q281.16-5.53 281.33-5.77Q281.49-6.02 281.49-6.19L281.49-6.19Q281.49-6.33 281.44-6.45Q281.39-6.56 281.36-6.70L281.36-6.70Q281.14-7.23 281.05-7.64Q280.96-8.05 280.96-8.63L280.96-8.63Q280.96-8.98 280.97-9.25Q280.98-9.51 281.01-9.76Q281.04-10 281.11-10.26Q281.18-10.53 281.30-10.86L281.30-10.86Q281.22-11.00 281.12-11.27Q281.02-11.54 281.02-11.70L281.02-11.70L281.30-14.47Q281.28-14.53 281.28-14.67L281.28-14.67Q281.28-14.84 281.34-15.02Q281.39-15.20 281.39-15.39L281.39-15.39Q281.39-15.84 281.24-16.28Q281.08-16.72 281.08-17.17L281.08-17.17Q281.08-17.32 281.16-17.54Q281.24-17.75 281.33-18.01Q281.41-18.26 281.49-18.56Q281.57-18.87 281.57-19.22L281.57-19.22Q281.57-19.49 281.44-19.69Q281.32-19.88 281.32-20.14L281.32-20.14Q281.32-20.37 281.43-20.61Q281.55-20.84 281.55-21.11L281.55-21.11Q281.55-21.50 281.40-21.87Q281.26-22.23 281.10-22.56L281.10-22.56Q280.87-23.05 280.74-23.35Q280.61-23.65 280.44-23.84Q280.26-24.02 279.96-24.11Q279.66-24.20 279.09-24.24L279.09-24.24Q278.82-24.26 278.57-24.40Q278.33-24.55 278.14-24.79Q277.96-25.02 277.84-25.29Q277.72-25.57 277.72-25.82L277.72-25.82Q277.72-26.17 278.04-26.42Q278.35-26.66 278.84-26.81Q279.32-26.95 279.93-27.04Q280.54-27.13 281.11-27.18Q281.69-27.23 282.17-27.25Q282.64-27.27 282.90-27.30L282.90-27.30Q283.29-27.36 283.66-27.38Q284.03-27.40 284.42-27.40L284.42-27.40Q285.18-27.40 285.96-27.35Q286.73-27.30 287.49-27.30L287.49-27.30Q288.31-27.30 289.10-27.46Q289.89-27.62 290.71-27.62L290.71-27.62Q291.45-27.62 292.18-27.45Q292.90-27.29 293.60-27.29L293.60-27.29Q294.29-27.29 294.95-27.45Q295.61-27.62 296.30-27.62L296.30-27.62Q296.59-27.62 296.88-27.56L296.88-27.56Q297.31-27.09 297.67-26.78Q298.04-26.46 298.30-26.14Q298.56-25.82 298.73-25.39Q298.89-24.96 298.95-24.26L298.95-24.26Q298.97-24.00 298.97-23.64Q298.97-23.28 298.99-22.94Q299.01-22.60 299.10-22.32Q299.19-22.05 299.38-21.99L299.38-21.99Q299.38-21.72 299.11-21.72L299.11-21.72Q299.13-21.45 299.23-21.16Q299.32-20.88 299.42-20.60Q299.52-20.31 299.60-20.03Q299.68-19.75 299.68-19.49ZM282.76-14.69L282.76-14.69Q282.64-14.69 282.55-14.65Q282.45-14.61 282.41-14.47L282.41-14.47Q283.15-14.04 283.59-13.66Q284.03-13.28 284.28-13.05Q284.52-12.81 284.64-12.78Q284.75-12.75 284.87-13.03L284.87-13.03Q285.03-13.38 284.82-13.69Q284.62-14.00 284.26-14.22Q283.89-14.43 283.47-14.56Q283.05-14.69 282.76-14.69Z M342.69-3.09L342.69-3.09Q342.69-2.91 342.67-2.62Q342.65-2.32 342.47-2.23L342.47-2.23Q342.28-2.13 342.23-1.89Q342.18-1.66 342.18-1.43Q342.18-1.19 342.16-1.01Q342.14-0.82 342.00-0.82L342.00-0.82Q341.91-0.82 341.85-0.87Q341.79-0.92 341.69-0.92L341.69-0.92Q341.59-0.92 341.50-0.82Q341.40-0.72 341.40-0.63L341.40-0.63Q341.40-0.53 341.47-0.48Q341.54-0.43 341.54-0.33L341.54-0.33Q341.54-0.25 341.24-0.15Q340.95-0.04 340.58 0.07Q340.21 0.18 339.86 0.24Q339.50 0.31 339.39 0.31L339.39 0.31Q338.68 0.31 337.98 0.06Q337.28-0.20 336.61-0.41L336.61-0.41Q335.81-0.68 335.43-1.31Q335.05-1.93 334.88-2.71Q334.70-3.50 334.61-4.32Q334.52-5.14 334.29-5.78L334.29-5.78Q334.19-6.07 334.19-6.27L334.19-6.27Q334.19-6.46 334.24-6.59Q334.29-6.72 334.36-6.81Q334.43-6.89 334.47-6.96Q334.52-7.03 334.52-7.11L334.52-7.11Q334.52-7.34 334.39-7.58Q334.25-7.81 334.25-8.20L334.25-8.20Q334.25-8.42 334.26-8.62Q334.27-8.83 334.27-9.04L334.27-9.04Q334.27-9.77 334.14-10.23Q334.02-10.70 333.79-11.09Q333.57-11.48 333.26-11.88Q332.96-12.27 332.59-12.81L332.59-12.81Q332.41-12.77 332.23-12.77Q332.04-12.77 331.85-12.77L331.85-12.77Q331.46-12.77 331.08-12.81Q330.70-12.85 330.30-12.85L330.30-12.85Q329.89-12.85 329.47-12.77Q329.05-12.70 328.63-12.70L328.63-12.70Q328.35-12.70 328.08-12.78Q327.80-12.87 327.53-12.87L327.53-12.87Q327.20-12.87 326.87-12.74Q326.54-12.62 326.26-12.39Q325.99-12.17 325.82-11.87Q325.66-11.56 325.66-11.21L325.66-11.21L325.66-10.59Q325.66-8.89 325.36-7.25L325.36-7.25Q325.32-6.99 325.29-6.75Q325.25-6.50 325.25-6.23L325.25-6.23Q325.25-5.43 325.57-4.94Q325.89-4.45 326.36-4.15Q326.83-3.85 327.39-3.65Q327.96-3.46 328.43-3.25Q328.90-3.05 329.22-2.75Q329.54-2.46 329.54-1.95L329.54-1.95Q329.54-1.76 329.47-1.59Q329.41-1.43 329.31-1.27L329.31-1.27Q329.05-0.86 328.83-0.65Q328.61-0.45 328.34-0.33Q328.08-0.21 327.77-0.16Q327.45-0.10 327.02 0L327.02 0Q326.69 0.08 326.33 0.11Q325.97 0.14 325.62 0.14L325.62 0.14Q325.07 0.14 324.54 0.01Q324.02-0.12 323.47-0.12L323.47-0.12Q323.06-0.12 322.64-0.05Q322.22 0.02 321.81 0.11Q321.40 0.20 320.99 0.26Q320.58 0.33 320.17 0.33L320.17 0.33Q319.89 0.33 319.57 0.27Q319.25 0.21 318.98 0.07Q318.70-0.08 318.52-0.31Q318.33-0.55 318.33-0.88L318.33-0.88Q318.33-1.15 318.47-1.37Q318.61-1.58 318.83-1.74Q319.05-1.89 319.31-1.99Q319.56-2.09 319.80-2.11L319.80-2.11Q320.01-2.13 320.16-2.13Q320.30-2.13 320.41-2.17Q320.52-2.21 320.64-2.29Q320.75-2.36 320.91-2.52L320.91-2.52Q321.01-2.62 321.10-2.68Q321.18-2.73 321.32-2.73L321.32-2.73Q321.42-2.73 321.52-2.71Q321.61-2.70 321.71-2.70L321.71-2.70Q321.87-2.70 322.02-2.79L322.02-2.79Q322.43-3.03 322.61-3.40Q322.79-3.77 322.84-4.21Q322.90-4.65 322.91-5.12Q322.92-5.59 323.02-5.98L323.02-5.98Q323.12-6.41 323.12-6.78L323.12-6.78Q323.12-7.46 322.95-8.13Q322.79-8.79 322.79-9.47L322.79-9.47Q322.79-10.29 322.90-11.11Q323.02-11.93 323.02-12.75L323.02-12.75Q323.02-12.97 323.01-13.16Q323-13.36 323-13.57L323-13.57Q323-14.98 323.18-16.35Q323.35-17.71 323.35-19.12L323.35-19.12Q323.35-19.51 323.33-19.88Q323.31-20.25 323.27-20.64L323.27-20.64Q323.23-20.96 323.20-21.42Q323.16-21.88 323.08-22.36Q323-22.85 322.87-23.34Q322.75-23.83 322.52-24.21Q322.30-24.59 321.97-24.83Q321.65-25.08 321.20-25.08L321.20-25.08Q321.11-25.08 321.00-25.06Q320.89-25.04 320.79-25.04L320.79-25.04Q320.58-25.04 320.44-25.17Q320.30-25.29 320.23-25.48Q320.15-25.66 320.12-25.88Q320.09-26.09 320.09-26.25L320.09-26.25Q320.09-26.91 320.43-27.23Q320.77-27.54 321.27-27.66Q321.77-27.77 322.35-27.76Q322.92-27.75 323.37-27.79L323.37-27.79Q323.88-27.83 324.38-27.97Q324.88-28.11 325.40-28.11L325.40-28.11Q326.16-28.11 326.91-27.91Q327.65-27.71 328.41-27.71L328.41-27.71Q329.04-27.71 329.62-27.82Q330.21-27.93 330.79-28.13L330.79-28.13Q331.09-28.22 331.32-28.22L331.32-28.22Q332.08-28.22 332.82-28.03Q333.57-27.83 334.31-27.79L334.31-27.79Q334.82-27.75 335.36-27.61Q335.91-27.46 336.39-27.20Q336.87-26.93 337.22-26.52Q337.57-26.11 337.67-25.57L337.67-25.57Q337.73-25.23 337.94-24.93Q338.16-24.63 338.40-24.38Q338.64-24.14 338.83-23.94Q339.02-23.73 339.02-23.59L339.02-23.59Q339.02-23.46 338.89-23.39Q338.76-23.32 338.76-23.16L338.76-23.16Q338.76-23.07 338.89-22.95Q339.02-22.83 339.17-22.68Q339.33-22.52 339.46-22.33Q339.58-22.15 339.58-21.93L339.58-21.93Q339.58-21.64 339.40-21.42Q339.21-21.19 339.21-20.90L339.21-20.90L339.25-20.84L339.52-20.92L339.56-20.88Q339.64-20.57 339.63-20.22Q339.62-19.88 339.62-19.61L339.62-19.61Q339.62-19.24 339.60-18.79Q339.58-18.34 339.50-17.91Q339.43-17.48 339.27-17.11Q339.11-16.74 338.82-16.52L338.82-16.52Q338.64-16.39 338.46-16.32Q338.27-16.25 338.10-16.16Q337.92-16.07 337.79-15.94Q337.65-15.80 337.57-15.57L337.57-15.57Q337.47-15.23 337.24-14.94Q337.00-14.65 336.76-14.37Q336.52-14.08 336.33-13.79Q336.14-13.50 336.14-13.14L336.14-13.14Q336.14-12.58 336.41-12.09Q336.67-11.60 336.89-11.09L336.89-11.09Q337.10-10.57 337.20-10.03Q337.30-9.49 337.35-8.95Q337.39-8.40 337.42-7.85Q337.45-7.30 337.53-6.76L337.53-6.76Q337.57-6.52 337.72-5.99Q337.86-5.45 338.08-4.90Q338.29-4.36 338.57-3.95Q338.84-3.54 339.13-3.54L339.13-3.54Q339.39-3.54 339.54-3.81Q339.70-4.08 339.85-4.43Q339.99-4.79 340.18-5.12Q340.36-5.45 340.68-5.57L340.68-5.57Q341.28-5.51 341.68-5.33Q342.08-5.16 342.30-4.85Q342.51-4.55 342.60-4.11Q342.69-3.67 342.69-3.09ZM336.85-21.05L336.85-21.05Q336.85-21.33 336.73-21.69Q336.61-22.05 336.44-22.42Q336.26-22.79 336.06-23.13Q335.85-23.46 335.66-23.67L335.66-23.67Q335.25-23.67 335.11-23.73Q334.97-23.79 334.93-23.88Q334.89-23.96 334.85-24.08Q334.80-24.20 334.56-24.32L334.56-24.32Q333.88-24.65 333.33-24.82Q332.79-25 332.02-25L332.02-25Q331.81-25 331.60-24.88Q331.40-24.77 331.24-24.77L331.24-24.77Q330.79-24.77 330.36-24.87Q329.93-24.98 329.48-24.98L329.48-24.98Q328.84-24.98 328.16-24.82L328.16-24.82Q327.71-24.71 327.26-24.61Q326.81-24.51 326.46-24.32Q326.11-24.12 325.88-23.79Q325.66-23.46 325.66-22.87L325.66-22.87Q325.66-22.27 325.78-21.68Q325.91-21.09 325.91-20.49L325.91-20.49Q325.91-20.20 325.82-19.92Q325.73-19.65 325.64-19.38Q325.54-19.12 325.45-18.85Q325.36-18.57 325.36-18.28L325.36-18.28Q325.36-17.93 325.43-17.57Q325.50-17.21 325.68-16.92Q325.85-16.64 326.13-16.46Q326.42-16.29 326.85-16.29L326.85-16.29Q327.26-16.29 327.63-16.46Q328-16.62 328.41-16.62L328.41-16.62Q328.63-16.62 328.82-16.51Q329.02-16.41 329.21-16.29Q329.41-16.17 329.62-16.06Q329.84-15.96 330.09-15.96L330.09-15.96Q330.29-15.96 330.46-16.01Q330.64-16.05 330.79-16.13L330.79-16.13Q331.54-16.46 332.37-16.73Q333.20-16.99 334.02-16.99L334.02-16.99Q334.23-16.99 334.52-17.24Q334.82-17.48 335.13-17.86Q335.44-18.24 335.75-18.70Q336.07-19.16 336.31-19.62Q336.55-20.08 336.70-20.46Q336.85-20.84 336.85-21.05Z M380.43-10.43L380.43-10.43Q380.43-10.04 380.40-9.64Q380.37-9.24 380.27-8.85L380.27-8.85Q380.19-8.52 380.06-8.23Q379.94-7.95 379.90-7.62L379.90-7.62Q379.86-7.42 379.82-7.20Q379.78-6.97 379.53-6.97L379.53-6.97L379.37-6.99Q379.06-6.99 378.90-6.75Q378.75-6.50 378.66-6.16Q378.57-5.82 378.52-5.47Q378.47-5.12 378.41-4.90L378.41-4.90Q378.36-4.69 378.35-4.52Q378.34-4.36 378.33-4.23Q378.32-4.10 378.24-3.96Q378.16-3.83 377.96-3.67L377.96-3.67Q377.65-3.44 377.36-3.22Q377.07-3.01 376.83-2.71L376.83-2.71Q376.66-2.50 376.60-2.34Q376.54-2.19 376.48-2.05Q376.42-1.91 376.29-1.81Q376.17-1.70 375.88-1.60L375.88-1.60Q375.43-1.45 375.02-1.25Q374.61-1.05 374.18-0.90L374.18-0.90Q373.67-0.70 373.22-0.46Q372.77-0.21 372.30 0Q371.83 0.21 371.33 0.36Q370.84 0.51 370.27 0.51L370.27 0.51Q369.76 0.51 369.26 0.35Q368.77 0.20 368.34-0.08L368.34-0.08Q367.93-0.12 367.71-0.37Q367.50-0.63 367.36-0.98L367.36-0.98Q367.24-1.25 367.13-1.37Q367.03-1.48 366.90-1.53Q366.77-1.58 366.62-1.62Q366.46-1.66 366.25-1.80L366.25-1.80Q365.37-2.36 364.64-3.21Q363.92-4.06 363.30-4.92L363.30-4.92Q363.16-5.12 363.09-5.38Q363.02-5.64 362.96-5.91Q362.91-6.17 362.84-6.42Q362.77-6.66 362.63-6.80L362.63-6.80Q362.38-7.05 362.18-7.07Q361.99-7.09 361.86-7.16Q361.73-7.23 361.67-7.49Q361.60-7.75 361.60-8.48L361.60-8.48Q361.60-8.93 361.52-9.41Q361.44-9.90 361.33-10.42Q361.23-10.94 361.15-11.47Q361.07-12.01 361.07-12.54L361.07-12.54Q361.07-13.11 361.14-13.67Q361.21-14.24 361.30-14.80Q361.40-15.37 361.50-15.93Q361.60-16.48 361.64-17.05L361.64-17.05Q361.68-17.58 361.69-18.13Q361.70-18.67 361.72-19.22Q361.75-19.77 361.83-20.29Q361.91-20.82 362.11-21.33L362.11-21.33Q362.30-21.88 362.60-22.36Q362.91-22.85 363.20-23.34Q363.49-23.83 363.75-24.34Q364-24.84 364.14-25.43L364.14-25.43Q364.21-25.80 364.63-26.12Q365.04-26.45 365.64-26.73Q366.25-27.01 366.96-27.24Q367.67-27.46 368.38-27.63Q369.08-27.79 369.67-27.88Q370.27-27.97 370.64-27.97L370.64-27.97Q371.62-27.97 372.48-27.72Q373.34-27.48 374.21-27.09L374.21-27.09Q374.61-26.91 375.06-26.81Q375.52-26.70 375.93-26.70L375.93-26.70Q376.34-26.70 376.55-26.85Q376.75-26.99 376.87-27.20Q376.99-27.40 377.07-27.59Q377.14-27.77 377.30-27.87L377.30-27.87L377.24-27.85Q377.28-27.89 377.38-27.90Q377.48-27.91 377.59-27.91L377.59-27.91Q377.75-27.89 377.97-27.83Q378.20-27.77 378.43-27.70Q378.67-27.62 378.87-27.53Q379.08-27.44 379.18-27.36L379.18-27.36Q379.23-27.32 379.37-27.11Q379.51-26.89 379.65-26.64Q379.80-26.39 379.91-26.17Q380.02-25.96 380.02-25.90L380.02-25.90Q380.02-25.41 380.16-24.98Q380.31-24.55 380.31-24.06L380.31-24.06Q380.31-23.55 380.16-23.07Q380.02-22.58 380.02-22.07L380.02-22.07Q380.02-21.45 380.04-20.85Q380.07-20.25 380.07-19.63L380.07-19.63Q380.07-19.06 380.03-18.51Q379.98-17.95 379.86-17.40L379.86-17.40Q379.82-17.25 379.78-17.03Q379.74-16.82 379.67-16.62Q379.61-16.43 379.50-16.29Q379.39-16.15 379.21-16.15L379.21-16.15Q379.04-16.15 378.90-16.21L378.90-16.21Q378.80-16.19 378.73-16.18Q378.65-16.17 378.55-16.17L378.55-16.17Q378.38-16.17 378.34-16.23Q378.30-16.29 378.30-16.38Q378.30-16.46 378.27-16.57Q378.24-16.68 378.06-16.78L378.06-16.78Q377.95-16.86 377.75-16.88Q377.55-16.89 377.37-16.92Q377.18-16.95 377.05-17.04Q376.91-17.13 376.91-17.32L376.91-17.32Q376.91-17.54 377.00-17.55Q377.09-17.56 377.21-17.48Q377.34-17.40 377.50-17.33Q377.65-17.27 377.79-17.32L377.79-17.32Q377.52-17.64 377.31-17.98Q377.11-18.32 376.90-18.67Q376.70-19.02 376.48-19.38Q376.27-19.73 375.99-20.02L375.99-20.02Q375.76-20.27 375.60-20.61Q375.45-20.94 375.30-21.28Q375.15-21.62 374.99-21.92Q374.82-22.23 374.57-22.42L374.57-22.42Q373.67-23.11 372.58-23.62Q371.50-24.14 370.33-24.14L370.33-24.14Q369.51-24.14 368.81-23.90Q368.12-23.65 367.44-23.24L367.44-23.24Q367.16-23.09 366.92-22.97Q366.68-22.85 366.45-22.71Q366.23-22.56 366.06-22.35Q365.89-22.15 365.82-21.80L365.82-21.80Q365.72-21.45 365.73-21.07Q365.74-20.70 365.54-20.39L365.54-20.39Q365.45-20.23 365.24-20.14Q365.04-20.04 364.98-19.84L364.98-19.84Q364.82-19.39 364.79-18.91Q364.76-18.42 364.75-17.91Q364.74-17.40 364.72-16.88Q364.70-16.37 364.57-15.90L364.57-15.90Q364.45-15.51 364.40-15.12Q364.35-14.73 364.35-14.34L364.35-14.34Q364.35-13.59 364.40-12.88Q364.45-12.17 364.45-11.45L364.45-11.45Q364.45-10.57 364.54-9.73Q364.63-8.89 364.86-8.05L364.86-8.05Q365.04-7.42 365.35-6.85Q365.66-6.27 365.82-5.64L365.82-5.64Q365.89-5.31 366.10-4.94Q366.30-4.57 366.59-4.26Q366.87-3.95 367.22-3.74Q367.57-3.54 367.95-3.54L367.95-3.54Q368.22-3.54 368.47-3.60Q368.73-3.67 369-3.67L369-3.67Q369.29-3.67 369.59-3.62Q369.88-3.57 370.17-3.57L370.17-3.57Q370.70-3.57 371.28-3.71Q371.85-3.85 372.24-4.26L372.24-4.26Q372.52-4.55 372.87-4.67Q373.22-4.79 373.58-4.86Q373.94-4.94 374.27-5.07Q374.61-5.20 374.86-5.53L374.86-5.53Q375.02-5.74 375.18-6.19Q375.35-6.64 375.52-7.13Q375.70-7.62 375.88-8.02Q376.07-8.42 376.27-8.52L376.27-8.52Q376.44-8.61 376.49-9.01Q376.54-9.41 376.54-9.96L376.54-9.96L376.54-10.86Q376.54-11.25 376.56-11.62Q376.58-11.99 376.65-12.29Q376.71-12.58 376.85-12.75Q376.99-12.93 377.22-12.93L377.22-12.93Q377.44-12.93 377.56-12.78Q377.69-12.64 377.89-12.64L377.89-12.64Q378.08-12.64 378.27-12.76Q378.45-12.89 378.67-12.89L378.67-12.89Q378.96-12.89 379.21-12.64Q379.45-12.38 379.65-12.07Q379.86-11.76 379.99-11.49Q380.11-11.23 380.17-11.21L380.17-11.21Q380.37-11.17 380.40-10.89Q380.43-10.61 380.43-10.43Z M421.86-19.49L421.86-19.49Q421.86-19.41 421.76-19.18Q421.66-18.95 421.53-18.67Q421.41-18.40 421.27-18.16Q421.13-17.93 421.05-17.85L421.05-17.85L421.09-17.83Q421.05-17.83 421.02-17.81L421.02-17.81L420.92-17.81Q420.84-17.79 420.75-17.79Q420.66-17.79 420.57-17.79L420.57-17.79L420.64-17.81Q420.20-17.83 419.83-17.98Q419.47-18.13 419.24-18.54L419.24-18.54Q419.20-18.61 419.12-18.82Q419.04-19.02 418.96-19.26Q418.89-19.49 418.84-19.70Q418.79-19.90 418.79-20L418.79-20Q418.79-20.16 418.82-20.33Q418.85-20.51 418.85-20.66L418.85-20.66Q418.85-21.27 418.73-21.86Q418.61-22.44 418.61-23.05L418.61-23.05Q418.61-23.44 418.71-23.81Q418.81-24.18 419.06-24.49L419.06-24.49L418.96-24.49Q418.73-24.49 418.59-24.64Q418.46-24.79 418.14-24.79L418.14-24.79Q417.40-24.79 416.70-24.61Q416.00-24.43 415.21-24.43L415.21-24.43Q414.90-24.43 414.59-24.44Q414.28-24.45 413.95-24.45L413.95-24.45Q413.34-24.45 412.75-24.32Q412.17-24.18 411.62-24.18L411.62-24.18Q411.56-24.18 411.56-24.20L411.56-24.20Q411.56-24.24 411.70-24.31Q411.84-24.38 411.84-24.41L411.84-24.41Q411.84-24.49 411.71-24.49Q411.58-24.49 411.54-24.49L411.54-24.49Q411.39-24.49 411.28-24.34Q411.17-24.18 410.96-24.12L410.96-24.12Q410.66-24.04 410.33-24.04Q410-24.04 409.69-24.04L409.69-24.04Q409.49-24.04 409.12-24.06Q408.75-24.08 408.38-24.15Q408.01-24.22 407.71-24.37Q407.40-24.51 407.36-24.79L407.36-24.79Q407.15-24.73 407.08-24.58Q407.01-24.43 406.96-24.28Q406.91-24.12 406.82-23.99Q406.72-23.87 406.43-23.85L406.43-23.85Q405.88-23.81 405.72-23.50Q405.57-23.18 405.57-22.79L405.57-22.79Q405.57-22.58 405.59-22.36Q405.61-22.15 405.61-21.93L405.61-21.93Q405.61-21.15 405.58-20.38Q405.55-19.61 405.55-18.83L405.55-18.83Q405.55-18.50 405.56-17.94Q405.57-17.38 405.63-16.85Q405.70-16.31 405.84-15.89Q405.98-15.47 406.23-15.41L406.23-15.41Q406.39-15.37 406.56-15.36Q406.74-15.35 406.91-15.35L406.91-15.35Q407.60-15.35 408.25-15.51Q408.91-15.66 409.59-15.66L409.59-15.66Q409.86-15.66 410.11-15.59Q410.35-15.51 410.61-15.51L410.61-15.51Q410.98-15.51 411.18-15.87Q411.39-16.23 411.47-16.71Q411.56-17.19 411.58-17.68Q411.60-18.16 411.60-18.40L411.60-18.40Q411.60-18.89 411.57-19.37Q411.54-19.84 411.54-20.33L411.54-20.33L411.66-20.33Q412.15-20.33 412.58-20.18Q413.01-20.02 413.48-20.02L413.48-20.02Q413.67-20.02 413.77-20.04L413.77-20.04Q413.77-19.65 413.91-19.26Q414.04-18.87 414.04-18.46L414.04-18.46Q414.04-17.95 413.50-17.81L413.50-17.81Q413.65-17.54 413.75-17.27Q413.85-16.99 413.85-16.70L413.85-16.70Q413.85-16.48 413.81-16.28Q413.77-16.07 413.77-15.86L413.77-15.86Q413.77-15.66 413.90-15.56Q414.02-15.45 414.02-15.31L414.02-15.31Q414.02-15.08 413.84-14.73Q413.65-14.38 413.65-14.00L413.65-14.00Q413.65-13.57 413.73-13.11Q413.81-12.64 413.91-12.13Q414.00-11.62 414.08-11.10Q414.16-10.59 414.16-10.06L414.16-10.06Q414.16-9.75 414.13-9.41Q414.10-9.08 413.99-8.78Q413.89-8.48 413.70-8.22Q413.52-7.97 413.22-7.79L413.22-7.79Q412.85-7.83 412.60-8.02Q412.34-8.20 412.18-8.47Q412.01-8.73 411.92-9.05Q411.84-9.38 411.80-9.71L411.80-9.71Q411.72-10.21 411.72-10.64Q411.72-11.07 411.53-11.38Q411.35-11.68 410.83-11.86Q410.31-12.03 409.22-12.03L409.22-12.03Q408.91-12.03 408.33-11.97Q407.75-11.91 407.19-11.77Q406.62-11.62 406.20-11.35Q405.78-11.07 405.78-10.66L405.78-10.66Q405.78-10.43 405.83-10.21Q405.88-9.98 405.88-9.75L405.88-9.75Q405.88-9.55 405.86-9.36Q405.84-9.16 405.84-8.95L405.84-8.95Q405.84-8.42 405.90-7.90Q405.96-7.38 405.96-6.86L405.96-6.86Q405.96-6.29 405.81-5.74Q405.66-5.20 405.66-4.63L405.66-4.63Q405.66-4.00 405.97-3.64Q406.27-3.28 406.74-3.10Q407.21-2.91 407.75-2.85Q408.30-2.79 408.77-2.79L408.77-2.79Q409.71-2.79 410.64-2.91Q411.58-3.03 412.52-3.03L412.52-3.03Q413.11-3.03 413.69-2.97Q414.28-2.91 414.86-2.91L414.86-2.91Q415.31-2.91 415.86-2.94Q416.41-2.97 416.90-3.13Q417.40-3.28 417.76-3.58Q418.13-3.89 418.22-4.45L418.22-4.45Q418.24-4.61 418.33-4.68Q418.42-4.75 418.53-4.79Q418.63-4.84 418.71-4.90Q418.79-4.96 418.79-5.10L418.79-5.10Q418.79-5.25 418.67-5.46Q418.55-5.66 418.52-5.84L418.52-5.84Q418.44-6.21 418.43-6.59Q418.42-6.97 418.42-7.34L418.42-7.34Q418.42-7.93 418.60-8.37Q418.79-8.81 418.79-9.34L418.79-9.34Q418.79-9.49 418.78-9.63Q418.77-9.77 418.77-9.92L418.77-9.92Q418.77-10.04 418.95-10.16Q419.12-10.27 419.36-10.36Q419.59-10.45 419.82-10.51Q420.06-10.57 420.18-10.57L420.18-10.57Q420.66-10.57 420.98-10.22Q421.29-9.88 421.46-9.39Q421.62-8.91 421.68-8.38Q421.74-7.85 421.74-7.48L421.74-7.48Q421.74-6.88 421.64-6.11Q421.54-5.35 421.38-4.55Q421.21-3.75 421.00-3.00Q420.78-2.25 420.57-1.68L420.57-1.68Q420.45-1.41 420.34-1.27Q420.23-1.13 420.11-1.04Q419.98-0.96 419.83-0.87Q419.69-0.78 419.51-0.59L419.51-0.59Q419.36-0.41 418.92-0.35Q418.48-0.29 417.99-0.29L417.99-0.29Q417.62-0.29 417.29-0.31Q416.95-0.33 416.78-0.33L416.78-0.33Q416.13-0.33 415.73-0.18Q415.33-0.02 414.98-0.02L414.98-0.02Q414.73-0.02 414.65-0.13Q414.57-0.23 414.41-0.23L414.41-0.23Q414.28-0.23 414.16-0.12Q414.04 0 413.81 0L413.81 0Q413.57 0 413.33-0.01Q413.09-0.02 412.83-0.02L412.83-0.02Q411.37-0.02 409.92 0.07Q408.48 0.16 407.01 0.20L407.01 0.20Q406.02 0.23 405.04 0.43Q404.06 0.63 403.07 0.63L403.07 0.63Q402.71 0.63 402.27 0.56Q401.82 0.49 401.42 0.31Q401.02 0.14 400.74-0.17Q400.47-0.47 400.47-0.92L400.47-0.92Q400.47-1.35 400.78-1.74Q401.09-2.13 401.53-2.46Q401.97-2.79 402.44-3.08Q402.91-3.36 403.20-3.61L403.20-3.61Q403.18-3.77 403.18-3.91Q403.18-4.04 403.18-4.18L403.18-4.18Q403.18-4.47 403.19-4.77Q403.20-5.06 403.30-5.35L403.30-5.35Q403.34-5.53 403.51-5.77Q403.67-6.02 403.67-6.19L403.67-6.19Q403.67-6.33 403.62-6.45Q403.57-6.56 403.54-6.70L403.54-6.70Q403.32-7.23 403.23-7.64Q403.14-8.05 403.14-8.63L403.14-8.63Q403.14-8.98 403.15-9.25Q403.16-9.51 403.19-9.76Q403.22-10 403.29-10.26Q403.36-10.53 403.48-10.86L403.48-10.86Q403.40-11.00 403.30-11.27Q403.20-11.54 403.20-11.70L403.20-11.70L403.48-14.47Q403.46-14.53 403.46-14.67L403.46-14.67Q403.46-14.84 403.52-15.02Q403.57-15.20 403.57-15.39L403.57-15.39Q403.57-15.84 403.42-16.28Q403.26-16.72 403.26-17.17L403.26-17.17Q403.26-17.32 403.34-17.54Q403.42-17.75 403.51-18.01Q403.59-18.26 403.67-18.56Q403.75-18.87 403.75-19.22L403.75-19.22Q403.75-19.49 403.62-19.69Q403.50-19.88 403.50-20.14L403.50-20.14Q403.50-20.37 403.61-20.61Q403.73-20.84 403.73-21.11L403.73-21.11Q403.73-21.50 403.58-21.87Q403.44-22.23 403.28-22.56L403.28-22.56Q403.05-23.05 402.92-23.35Q402.79-23.65 402.62-23.84Q402.44-24.02 402.14-24.11Q401.84-24.20 401.27-24.24L401.27-24.24Q401.00-24.26 400.75-24.40Q400.51-24.55 400.32-24.79Q400.14-25.02 400.02-25.29Q399.90-25.57 399.90-25.82L399.90-25.82Q399.90-26.17 400.21-26.42Q400.53-26.66 401.02-26.81Q401.50-26.95 402.11-27.04Q402.71-27.13 403.29-27.18Q403.87-27.23 404.35-27.25Q404.82-27.27 405.08-27.30L405.08-27.30Q405.47-27.36 405.84-27.38Q406.21-27.40 406.60-27.40L406.60-27.40Q407.36-27.40 408.13-27.35Q408.91-27.30 409.67-27.30L409.67-27.30Q410.49-27.30 411.28-27.46Q412.07-27.62 412.89-27.62L412.89-27.62Q413.63-27.62 414.36-27.45Q415.08-27.29 415.78-27.29L415.78-27.29Q416.46-27.29 417.13-27.45Q417.79-27.62 418.48-27.62L418.48-27.62Q418.77-27.62 419.06-27.56L419.06-27.56Q419.49-27.09 419.85-26.78Q420.21-26.46 420.48-26.14Q420.74-25.82 420.91-25.39Q421.07-24.96 421.13-24.26L421.13-24.26Q421.15-24.00 421.15-23.64Q421.15-23.28 421.17-22.94Q421.19-22.60 421.28-22.32Q421.37-22.05 421.56-21.99L421.56-21.99Q421.56-21.72 421.29-21.72L421.29-21.72Q421.31-21.45 421.41-21.16Q421.50-20.88 421.60-20.60Q421.70-20.31 421.78-20.03Q421.86-19.75 421.86-19.49ZM404.94-14.69L404.94-14.69Q404.82-14.69 404.73-14.65Q404.63-14.61 404.59-14.47L404.59-14.47Q405.33-14.04 405.77-13.66Q406.21-13.28 406.46-13.05Q406.70-12.81 406.82-12.78Q406.93-12.75 407.05-13.03L407.05-13.03Q407.21-13.38 407.00-13.69Q406.80-14.00 406.44-14.22Q406.07-14.43 405.65-14.56Q405.23-14.69 404.94-14.69Z"/></g>
</svg>
</g><g opacity="1" transform="rotate(0 440.199 169.7849)">
<svg width="95.602" height="95.5606" x="440.199" y="169.7849" version="1.1" preserveAspectRatio="none" viewBox="4654 4666 50693 50671">
  <g transform="matrix(1 0 0 1 0 0)" class="companyName"><defs></defs><g><path class="fil0" d="M11464 14374l10560 -7333c-60,-134 -93,-282 -93,-438 0,-297 120,-565 315,-759 194,-194 463,-315 759,-315 297,0 565,120 759,315 141,141 243,321 288,523 1030,-36 2061,-73 3091,-109 77,-392 269,-743 541,-1014 357,-357 850,-578 1395,-578 545,0 1038,221 1395,578 240,240 418,541 510,879l3410 -121c35,-222 140,-420 292,-572 188,-188 448,-304 735,-304 287,0 547,116 735,304 188,188 304,448 304,735 0,118 -20,232 -56,338 3484,2011 6967,4022 10451,6032 88,-27 180,-41 277,-41 263,0 501,107 673,279 172,172 279,410 279,673 0,89 -12,176 -35,258 1258,1847 2517,3695 3775,5542 251,-124 533,-194 832,-194 519,0 988,210 1328,550 340,340 550,810 550,1328 0,519 -210,988 -550,1328 -222,222 -499,389 -809,478 433,3287 866,6574 1298,9861 232,19 440,121 595,276 172,172 279,410 279,673 0,263 -107,501 -279,673 -172,172 -410,279 -673,279 -57,0 -112,-5 -166,-14 -1340,3534 -2680,7068 -4021,10601 56,37 109,79 156,126 172,172 279,410 279,673 0,263 -107,501 -279,673 -172,172 -410,279 -673,279 -223,0 -428,-77 -591,-206 -3574,2315 -7148,4630 -10723,6945 40,105 62,219 62,338 0,263 -107,501 -279,673 -172,172 -410,279 -673,279 -263,0 -501,-107 -673,-279 -120,-120 -209,-273 -251,-444 -3048,187 -6095,374 -9143,560 -48,135 -125,256 -225,356 -172,172 -410,279 -673,279 -263,0 -501,-107 -673,-279 -172,-172 -279,-410 -279,-673l0 -1c-1262,-551 -2525,-1102 -3787,-1653 -172,168 -406,271 -665,271 -263,0 -501,-107 -673,-279 -172,-172 -279,-410 -279,-673 0,-9 0,-17 0,-25 -1269,-554 -2537,-1108 -3806,-1662l-4441 -4067c-156,111 -346,176 -552,176 -263,0 -501,-107 -673,-279 -172,-172 -279,-410 -279,-673 0,-261 105,-497 275,-669l-3219 -4922c-248,110 -523,171 -812,171 -554,0 -1055,-224 -1418,-587 -363,-363 -587,-864 -587,-1418 0,-554 224,-1055 587,-1418 263,-263 598,-453 974,-538 -199,-1798 -398,-3596 -597,-5394 399,-2605 798,-5211 1196,-7817 -168,-172 -271,-406 -271,-665 0,-263 107,-501 279,-673 146,-146 339,-244 554,-271 869,-1756 1738,-3513 2607,-5269 -70,-45 -135,-97 -194,-155 -205,-205 -331,-488 -331,-800 0,-312 127,-595 331,-800 205,-205 488,-331 800,-331 312,0 595,127 800,331 26,26 50,53 73,81zm-4213 25214l-428 -654c-64,14 -131,21 -200,21 -263,0 -501,-107 -673,-279 -172,-172 -279,-410 -279,-673 0,-285 117,-500 310,-652 103,-81 222,-137 351,-170l-71 -642c-283,72 -535,220 -735,420 -291,291 -470,692 -470,1135 0,443 180,845 470,1135 291,291 692,470 1135,470 208,0 407,-40 590,-112zm-590 -3499c554,0 1055,224 1418,587 128,128 239,274 329,432l7173 -4021c-34,-120 -53,-246 -53,-377 0,-284 87,-547 235,-766l-8091 -8748c-57,11 -116,16 -176,16 -109,0 -214,-18 -312,-52l-1162 7593 591 5335c16,0 32,-1 48,-1zm1908 1387c63,195 97,402 97,618 0,554 -224,1055 -587,1418 -80,80 -166,153 -258,218l3205 4901c106,-41 221,-63 342,-63 263,0 501,107 673,279 118,118 205,267 249,434l3286 -166c26,-497 237,-944 567,-1274 286,-286 661,-484 1080,-548 -153,-3074 -307,-6148 -461,-9222 -325,-31 -616,-176 -834,-394 -68,-68 -129,-143 -181,-224l-7178 4023zm-773 -517c-291,-291 -692,-470 -1135,-470l-4 0 73 661c198,17 384,82 534,200 95,75 172,166 225,273l569 -319c-72,-127 -160,-243 -263,-345zm-194 2436c69,-50 134,-105 194,-166 291,-291 470,-692 470,-1135 0,-144 -19,-284 -55,-418l-638 357c-8,250 -113,476 -278,642 -33,33 -68,63 -105,91l411 629zm19955 -33152l687 -24c39,-62 85,-120 136,-172 172,-172 410,-279 673,-279 263,0 501,107 673,279 36,36 69,75 99,116l746 -26c-78,-233 -209,-441 -379,-610 -285,-285 -678,-461 -1112,-461 -434,0 -828,176 -1112,461 -195,195 -339,441 -411,717zm3492 275c2,40 4,80 4,120 0,545 -221,1038 -578,1395 -152,152 -330,280 -525,376l2117 4283c53,-9 107,-14 163,-14 131,0 257,27 371,75l2259 -5714c-63,-40 -121,-88 -174,-140 -135,-135 -233,-307 -278,-500l-3359 119zm-1475 2030c-158,41 -323,62 -494,62 -545,0 -1038,-221 -1395,-578 -353,-353 -573,-838 -578,-1376l-3041 107c-35,232 -144,439 -302,597 -194,194 -463,315 -759,315 -49,0 -97,-3 -143,-10l-2286 6890c248,104 471,255 658,442 230,230 406,516 506,834l9561 -1997c-15,-66 -22,-136 -22,-206 0,-263 107,-501 279,-673 42,-42 89,-81 139,-115l-2122 -4294zm-2066 -1905c1,432 177,823 461,1107 285,285 678,461 1112,461 107,0 211,-11 311,-31l-253 -512c-28,2 -56,4 -84,4 -263,0 -501,-107 -673,-279 -172,-172 -279,-410 -279,-673 0,-33 2,-66 5,-98l-600 21zm2265 1407c156,-77 298,-179 420,-300 285,-285 461,-678 461,-1112 0,-36 -1,-71 -4,-106l-658 23c9,53 14,108 14,164 0,263 -107,501 -279,673 -60,60 -128,112 -203,155l249 503zm22279 11529l296 435c96,-31 199,-48 306,-48 274,0 522,111 702,291 180,180 291,428 291,702 0,274 -111,522 -291,702 -85,85 -185,154 -296,204l62 467c221,-73 419,-197 579,-358 268,-268 433,-637 433,-1045 0,-408 -165,-778 -433,-1045 -268,-268 -637,-433 -1045,-433 -215,0 -420,46 -604,129zm730 3224c-42,3 -83,4 -126,4 -519,0 -988,-210 -1328,-550 -193,-193 -345,-429 -439,-691l-6919 1576c2,25 2,50 2,75 0,242 -70,467 -191,657l10071 8888c69,-48 144,-87 225,-115l-1295 -9843zm-1988 -1625c-11,-82 -16,-165 -16,-249 0,-519 210,-988 550,-1328 50,-50 103,-98 159,-142l-3656 -5367c-8,9 -17,18 -25,26 -172,172 -410,279 -673,279 -128,0 -250,-25 -361,-71l-3402 7835c88,53 170,116 242,188 115,115 207,252 269,404l6913 -1574zm919 -1388c-36,29 -70,61 -102,93 -268,268 -433,637 -433,1045 0,54 3,107 9,160l475 -108c0,-7 0,-14 0,-22 0,-274 111,-522 291,-702 16,-16 32,-31 48,-45l-287 -422zm-431 1686c75,188 188,357 328,498 268,268 637,433 1045,433 25,0 49,-1 73,-2l-60 -454c-5,0 -10,0 -16,0 -274,0 -522,-111 -702,-291 -84,-84 -153,-182 -202,-292l-468 106zm-39620 -6752c40,116 62,240 62,370 0,17 0,35 -1,52l6077 827c89,-375 281,-710 544,-974 370,-370 881,-599 1446,-599 139,0 275,14 407,40l2289 -6898c-85,-47 -163,-106 -231,-173l-10591 7355zm-28 812c-57,135 -140,256 -242,358 -205,205 -488,331 -800,331 -81,0 -160,-9 -237,-25l-2553 5160c140,47 266,127 368,229 121,121 209,273 251,445l9521 -4711c-127,-266 -198,-564 -198,-879 0,-26 0,-51 1,-77l-6112 -831zm28519 26282c443,54 839,256 1139,556 352,352 570,838 570,1376 0,128 -12,254 -36,375l6962 1460c37,-111 93,-213 165,-301l-7754 -9635c-19,1 -38,2 -57,2 -121,0 -237,-23 -343,-64l-646 6233zm1556 2689c-98,232 -241,442 -417,618 -352,352 -838,570 -1376,570 -537,0 -1024,-218 -1376,-570 -352,-352 -570,-838 -570,-1376 0,-49 2,-98 5,-146l-5471 -1536c-49,82 -107,157 -174,224 -59,59 -124,111 -195,156l2423 4927c56,-5 113,-7 170,-7 537,0 1024,218 1376,570 227,227 398,510 491,826l11743 -2865 -6630 -1390zm-3661 -1299c92,-320 265,-605 494,-834 316,-316 740,-524 1212,-563l672 -6487c-32,-37 -61,-76 -87,-117l-7791 5758c77,154 121,329 121,513 0,73 -7,145 -20,215l5400 1516zm-16928 7890c263,0 501,107 673,279 172,172 279,410 279,673 0,121 -22,236 -63,342l3652 1594c47,-103 113,-196 192,-275 172,-172 410,-279 673,-279 55,0 109,5 162,14l2023 -5291 -9356 -2285c-98,275 -256,521 -457,723 -82,82 -170,156 -265,222l2370 4292c39,-5 79,-8 120,-8zm-855 533c46,-95 108,-180 182,-254 52,-52 109,-97 171,-136l-2338 -4233c-234,99 -491,154 -761,154 -537,0 -1024,-218 -1376,-570 -286,-286 -483,-660 -547,-1079l-3290 167c-20,116 -60,224 -117,322l4391 4021 3684 1608zm6791 1964c50,34 97,73 140,116 153,153 254,359 275,587l9080 -557c35,-195 129,-368 264,-503 40,-40 83,-76 130,-109l-1096 -2228c-317,224 -704,355 -1121,355 -537,0 -1024,-218 -1376,-570 -352,-352 -570,-838 -570,-1376 0,-54 2,-107 7,-160l-3690 -901 -2043 5345zm10432 -635c263,0 501,107 673,279l0 0 10684 -6920c-20,-39 -38,-80 -53,-122l-12125 2959c4,52 6,104 6,156 0,508 -195,971 -514,1318l1154 2347c57,-11 115,-16 175,-16zm-4625 -4201c93,-315 264,-597 490,-823 221,-221 495,-389 800,-483l-2386 -4853c-80,18 -164,27 -250,27 -88,0 -174,-10 -257,-29l-2017 5277 3620 884zm-15241 -5486c496,26 943,238 1273,567 352,352 570,838 570,1376 0,90 -6,179 -18,266l9405 2297 2040 -5337c-68,-44 -131,-95 -188,-152 -208,-208 -337,-496 -337,-813 0,-119 18,-234 52,-342 -4185,-2487 -8370,-4975 -12554,-7463l-5 5c-187,187 -429,320 -699,374l461 9223zm18583 -36426c-16,18 -32,36 -49,53 -188,188 -448,304 -735,304 -65,0 -128,-6 -189,-17l-2296 5806c140,154 229,355 243,576l13223 -734c18,-21 37,-42 57,-62l4 -4 -10259 -5921zm-3087 7124c-21,55 -47,107 -77,156l8940 8128c209,-166 474,-265 762,-265 87,0 173,9 255,26l3439 -7921c-159,-170 -256,-399 -256,-650 0,-69 7,-136 21,-200l-13083 726zm-352 445c-118,81 -255,136 -404,156l-2153 12153c322,92 611,265 841,495 134,134 248,287 338,455l10157 -4181c-21,-89 -31,-182 -31,-277 0,-246 72,-475 197,-667l-8947 -8134zm-804 127c-155,-45 -293,-129 -405,-240 -30,-30 -58,-61 -83,-95l-9653 2016c8,73 12,146 12,221 0,565 -229,1076 -599,1446l-7 7 7382 9072c306,-201 673,-318 1067,-318 47,0 95,2 141,5 716,-4037 1431,-8075 2145,-12113zm21896 19788c-49,-34 -95,-72 -137,-114 -115,-115 -200,-258 -245,-419l-11470 1296c-47,103 -113,197 -192,276 -60,60 -128,112 -202,155l7651 9507c129,-65 274,-102 428,-102 49,0 97,4 143,11l4024 -10610zm-405 -932c19,-125 63,-242 125,-345l-10064 -8881c-211,171 -479,273 -772,273 -10,0 -20,0 -29,0l-1680 8866 -46 448c50,-8 101,-12 154,-12 263,0 501,107 673,279 169,169 275,401 279,658l11361 -1284zm-21937 -4173l8828 4951c36,-55 77,-105 123,-152 31,-31 64,-60 99,-87l70 -678 2 -16 1681 -8874c-169,-62 -321,-160 -446,-285 -67,-67 -126,-142 -176,-223l-10157 4181c52,175 80,361 80,552 0,220 -37,432 -104,630zm8684 5328l-8852 -4964c-83,140 -183,268 -297,382 -248,248 -562,429 -914,515l1357 9841c7,0 15,0 22,0 307,0 586,120 792,317l7888 -5830c-5,-38 -7,-77 -7,-116 0,-49 4,-97 11,-144zm-19283 -16405c-324,215 -712,340 -1130,340 -54,0 -107,-2 -160,-6l-2301 12933c203,68 384,182 532,330 173,173 299,392 360,637l9563 -3337c-34,-144 -52,-295 -52,-449 0,-537 218,-1023 569,-1375l-7382 -9072zm-1682 265c-343,-96 -649,-279 -894,-523 -70,-70 -135,-145 -194,-224l-9725 4812c-41,176 -131,334 -254,457 -34,34 -71,66 -110,94l7974 8621c235,-191 534,-305 861,-305 13,0 27,0 40,1 768,-4311 1536,-8622 2302,-12933zm-979 14378c-12,200 -66,389 -155,557l12500 7431c31,-41 65,-80 101,-116 112,-112 248,-202 399,-260 -453,-3288 -906,-6576 -1360,-9864 -22,1 -45,1 -67,1 -537,0 -1024,-218 -1376,-570 -159,-159 -290,-344 -386,-550l-9656 3370zm-10715 -10529l-46 0 32 32c1,-7 9,-26 13,-32z"></path></g></g>
</svg>
</g></svg>